<svg viewBox="0 0 1060 680" xmlns="http://www.w3.org/2000/svg"><title>PAE Dashboard — PO/Promotor</title><defs><style>@import url('https://fonts.googleapis.com/css2?family=Inter:wght@300;400;500;600;700&amp;display=swap');text,tspan{font-family:'Inter',sans-serif;}</style><filter id="s" x="-4%" y="-4%" width="108%" height="116%"><feDropShadow dx="0" dy="1" stdDeviation="2" flood-opacity="0.06"/></filter></defs><rect width="1060" height="680" fill="#F7F8FA"/><rect width="1060" height="48" fill="#FFFFFF" filter="url(#s)"/><line x1="0" y1="48" x2="1060" y2="48" stroke="#E2E5EA"/><g transform="translate(16,16)"><rect width="4" height="16" rx="1" fill="#C8102E" y="-2"/><text x="8" y="11" font-size="13" font-weight="700" fill="#1A1D23">PAE</text><text x="42" y="11" font-size="10" fill="#5A6070">Gestión de Portfolio</text></g><text x="200" y="30" font-size="12" fill="#8B92A0">Propuesta</text><text x="290" y="30" font-size="12" fill="#8B92A0">Dimensionamiento</text><text x="410" y="30" font-size="12" fill="#8B92A0">MVP</text><text x="465" y="30" font-size="12" fill="#8B92A0">Delivery</text><circle cx="990" cy="24" r="14" stroke="#E2E5EA" fill="none"/><text x="990" y="28" text-anchor="middle" font-size="13" fill="#5A6070">🔔</text><circle cx="996" cy="16" r="7" fill="#C8102E"/><text x="996" y="19" text-anchor="middle" font-size="8" font-weight="600" fill="#FFFFFF">3</text><circle cx="1032" cy="24" r="14" fill="#003DA5" opacity="0.12"/><text x="1032" y="28" text-anchor="middle" font-size="10" font-weight="600" fill="#003DA5">JG</text><rect x="0" y="48" width="200" height="632" fill="#FFFFFF"/><line x1="200" y1="48" x2="200" y2="680" stroke="#E2E5EA"/><rect x="16" y="72" width="168" height="36" rx="8" fill="#003DA5"/><text x="100" y="94" text-anchor="middle" font-size="12" font-weight="500" fill="#FFFFFF">+ Nueva propuesta</text><text x="24" y="122" font-size="12" fill="#5A6070">Subir documento</text><text x="16" y="152" font-size="10" font-weight="600" fill="#8B92A0" letter-spacing="0.8">NAVEGACIÓN</text><rect x="8" y="162" width="184" height="32" rx="6" fill="#003DA5" opacity="0.06"/><rect x="4" y="168" width="3" height="20" rx="1.5" fill="#003DA5"/><text x="24" y="180" font-size="13" font-weight="600" fill="#003DA5">Dashboards</text><text x="24" y="216" font-size="13" fill="#5A6070">Mis iniciativas</text><text x="24" y="252" font-size="13" fill="#5A6070">Gateways</text><text x="16" y="290" font-size="10" font-weight="600" fill="#8B92A0" letter-spacing="0.8">ESTADO</text><rect x="16" y="306" width="87.5" height="22" rx="11" fill="#00843D" opacity="0.08"/><text x="59" y="321" text-anchor="middle" font-size="10" fill="#00843D">En progreso</text><rect x="16" y="332" width="74.5" height="22" rx="11" fill="#C8102E" opacity="0.08"/><text x="53" y="347" text-anchor="middle" font-size="10" fill="#C8102E">Pendiente</text><rect x="16" y="358" width="61.5" height="22" rx="11" fill="#8B92A0" opacity="0.08"/><text x="46" y="373" text-anchor="middle" font-size="10" fill="#8B92A0">Pausada</text><rect x="16" y="384" width="74.5" height="22" rx="11" fill="#8B92A0" opacity="0.08"/><text x="53" y="399" text-anchor="middle" font-size="10" fill="#8B92A0">Rechazada</text><rect x="16" y="410" width="87.5" height="22" rx="11" fill="#8B92A0" opacity="0.08"/><text x="59" y="425" text-anchor="middle" font-size="10" fill="#8B92A0">Cambio área</text><text x="224" y="82" font-size="18" font-weight="600" fill="#1A1D23">Dashboards — PO: J. García (2 inic.)</text><text x="224" y="98" font-size="10" fill="#8B92A0">Landing predeterminada del PO = Mis iniciativas, no este dashboard</text><text x="994" y="82" font-size="11" font-weight="500" fill="#C8102E">Descargar PPTX</text><rect x="216" y="110" width="201" height="68" rx="10" fill="#FFFFFF" filter="url(#s)"/><rect x="216" y="110" width="201" height="4" rx="2" fill="#003DA5"/><text x="228" y="134" font-size="9" font-weight="600" fill="#8B92A0" letter-spacing="0.5">INICIATIVAS</text><text x="228" y="160" font-size="20" font-weight="700" fill="#1A1D23">2</text><rect x="425" y="110" width="201" height="68" rx="10" fill="#FFFFFF" filter="url(#s)"/><rect x="425" y="110" width="201" height="4" rx="2" fill="#00843D"/><text x="437" y="134" font-size="9" font-weight="600" fill="#8B92A0" letter-spacing="0.5">VALOR TOTAL</text><text x="437" y="160" font-size="20" font-weight="700" fill="#1A1D23">USD 2.5M</text><rect x="634" y="110" width="201" height="68" rx="10" fill="#FFFFFF" filter="url(#s)"/><rect x="634" y="110" width="201" height="4" rx="2" fill="#5A6070"/><text x="646" y="134" font-size="9" font-weight="600" fill="#8B92A0" letter-spacing="0.5">GASTO TOTAL</text><text x="646" y="160" font-size="20" font-weight="700" fill="#1A1D23">USD 390K</text><rect x="843" y="110" width="201" height="68" rx="10" fill="#FFFFFF" filter="url(#s)"/><rect x="843" y="110" width="201" height="4" rx="2" fill="#C8102E"/><text x="855" y="134" font-size="9" font-weight="600" fill="#8B92A0" letter-spacing="0.5">GATES PEND.</text><text x="855" y="160" font-size="20" font-weight="700" fill="#1A1D23">1</text><rect x="216" y="192" width="410" height="100" rx="10" fill="#FFFFFF" filter="url(#s)"/><text x="232" y="220" font-size="14" font-weight="600" fill="#1A1D23">Distribución por etapa</text><text x="232" y="244" font-size="12" fill="#5A6070">Delivery</text><text x="336" y="244" font-size="11" fill="#8B92A0">Todas en Delivery</text><rect x="634" y="192" width="410" height="100" rx="10" fill="#FFFFFF" filter="url(#s)"/><text x="650" y="220" font-size="14" font-weight="600" fill="#1A1D23">Corrientes de valor</text><text x="660" y="258" font-size="11" font-weight="600" fill="#00843D">1.5M</text><text x="660" y="274" font-size="9" fill="#5A6070">Prod</text><text x="740" y="258" font-size="11" font-weight="600" fill="#00843D">620K</text><text x="740" y="274" font-size="9" fill="#5A6070">OPEX</text><text x="820" y="258" font-size="11" font-weight="600" fill="#00843D">280K</text><text x="820" y="274" font-size="9" fill="#5A6070">CAPEX</text><text x="900" y="258" font-size="11" font-weight="600" fill="#00843D">4.2K</text><text x="900" y="274" font-size="9" fill="#5A6070">HH</text><rect x="216" y="306" width="828" height="120" rx="10" fill="#FFFFFF" filter="url(#s)"/><text x="232" y="334" font-size="14" font-weight="600" fill="#1A1D23">Ranking iniciativas</text><text x="944" y="334" font-size="11" fill="#5A6070">Ordenar: ▼ ROI</text><text x="232" y="358" font-size="9" font-weight="600" fill="#8B92A0" letter-spacing="0.5">INICIATIVA</text><text x="456" y="358" font-size="9" font-weight="600" fill="#8B92A0" letter-spacing="0.5">ETAPA</text><text x="556" y="358" font-size="9" font-weight="600" fill="#8B92A0" letter-spacing="0.5">VALOR ESP. ↕</text><text x="656" y="358" font-size="9" font-weight="600" fill="#8B92A0" letter-spacing="0.5">GASTO ESP. ↕</text><text x="756" y="358" font-size="9" font-weight="600" fill="#8B92A0" letter-spacing="0.5">ROI ↕</text><text x="836" y="358" font-size="9" font-weight="600" fill="#8B92A0" letter-spacing="0.5">ESTADO</text><line x1="232" y1="364" x2="1028" y2="364" stroke="#E2E5EA"/><text x="232" y="386" font-size="11" fill="#1A1D23">Optimización de pozo</text><rect x="456" y="372" width="40" height="22" rx="11" fill="#00843D" opacity="0.08"/><text x="476" y="387" text-anchor="middle" font-size="10" font-weight="500" fill="#00843D">Del.</text><text x="556" y="386" font-size="11" fill="#1A1D23">USD 1.2M</text><text x="656" y="386" font-size="11" fill="#5A6070">USD 180K</text><text x="756" y="386" font-size="11" font-weight="600" fill="#00843D">6.7x</text><rect x="836" y="372" width="28" height="22" rx="11" fill="#00843D" opacity="0.08"/><text x="850" y="387" text-anchor="middle" font-size="10" font-weight="500" fill="#00843D">OK</text><text x="232" y="418" font-size="11" fill="#1A1D23">ERP integración campo</text><rect x="456" y="404" width="40" height="22" rx="11" fill="#00843D" opacity="0.08"/><text x="476" y="419" text-anchor="middle" font-size="10" font-weight="500" fill="#00843D">Del.</text><text x="556" y="418" font-size="11" fill="#1A1D23">USD 1.3M</text><text x="656" y="418" font-size="11" fill="#5A6070">USD 210K</text><text x="756" y="418" font-size="11" font-weight="600" fill="#00843D">6.2x</text><rect x="836" y="404" width="28" height="22" rx="11" fill="#00843D" opacity="0.08"/><text x="850" y="419" text-anchor="middle" font-size="10" font-weight="500" fill="#00843D">OK</text><rect x="216" y="440" width="828" height="90" rx="10" fill="#FFFFFF" filter="url(#s)"/><text x="232" y="468" font-size="14" font-weight="600" fill="#1A1D23">Próximos eventos</text><circle cx="256" cy="494" r="5" fill="#003DA5"/><text x="256" y="510" text-anchor="middle" font-size="10" font-weight="500" fill="#1A1D23">Sprint Rev</text><text x="256" y="522" text-anchor="middle" font-size="9" fill="#5A6070">21 abr</text><circle cx="421" cy="494" r="5" fill="#00843D"/><text x="421" y="510" text-anchor="middle" font-size="10" font-weight="500" fill="#1A1D23">Entrega Q2</text><text x="421" y="522" text-anchor="middle" font-size="9" fill="#5A6070">30 abr</text><circle cx="586" cy="494" r="5" fill="#00843D"/><text x="586" y="510" text-anchor="middle" font-size="10" font-weight="500" fill="#1A1D23">LTP Plan</text><text x="586" y="522" text-anchor="middle" font-size="9" fill="#5A6070">5 may</text><circle cx="751" cy="494" r="5" fill="#003DA5"/><text x="751" y="510" text-anchor="middle" font-size="10" font-weight="500" fill="#1A1D23">Seg. mensual</text><text x="751" y="522" text-anchor="middle" font-size="9" fill="#5A6070">15 may</text><circle cx="916" cy="494" r="5" fill="#003DA5"/><text x="916" y="510" text-anchor="middle" font-size="10" font-weight="500" fill="#1A1D23">Sprint Rev</text><text x="916" y="522" text-anchor="middle" font-size="9" fill="#5A6070">20 may</text><rect x="216" y="542" width="130" height="28" rx="6" fill="#FFFFFF" stroke="#E2E5EA"/><text x="232" y="560" font-size="11" font-weight="500" fill="#003DA5">+ Agregar evento</text></svg>