<svg viewBox="0 0 1060 720" xmlns="http://www.w3.org/2000/svg" role="img">
<title>PAE — Mis iniciativas</title><desc>Landing del PO. Cada usuario ve las suyas.</desc>
<defs><style>@import url('https://fonts.googleapis.com/css2?family=Inter:wght@300;400;500;600;700&amp;display=swap');text,tspan{font-family:'Inter',sans-serif;}</style>
<filter id="s" x="-4%" y="-4%" width="108%" height="116%"><feDropShadow dx="0" dy="1" stdDeviation="2" flood-opacity="0.06"/></filter>
<filter id="m" x="-4%" y="-4%" width="108%" height="120%"><feDropShadow dx="0" dy="2" stdDeviation="4" flood-opacity="0.08"/></filter></defs>
<rect width="1060" height="720" fill="#F7F8FA"/>
<rect width="1060" height="48" fill="#FFFFFF" filter="url(#s)"/><line x1="0" y1="48" x2="1060" y2="48" stroke="#E2E5EA"/><g transform="translate(16,16)"><rect width="4" height="16" rx="1" fill="#C8102E" y="-2"/><text x="8" y="11" font-size="13" font-weight="700" fill="#1A1D23">PAE</text><text x="42" y="11" font-size="10" fill="#5A6070">Gestión de Portfolio</text></g><text x="200" y="30" font-size="12" fill="#8B92A0">Propuesta</text><text x="290" y="30" font-size="12" fill="#8B92A0">Dimensionamiento</text><text x="410" y="30" font-size="12" fill="#8B92A0">MVP</text><text x="465" y="30" font-size="12" fill="#8B92A0">Delivery</text><circle cx="990" cy="24" r="14" stroke="#E2E5EA" fill="none"/><text x="990" y="28" text-anchor="middle" font-size="13" fill="#5A6070">🔔</text><circle cx="996" cy="16" r="7" fill="#C8102E"/><text x="996" y="19" text-anchor="middle" font-size="8" font-weight="600" fill="#FFFFFF">3</text><circle cx="1032" cy="24" r="14" fill="#003DA5" opacity="0.12"/><text x="1032" y="28" text-anchor="middle" font-size="10" font-weight="600" fill="#003DA5">MR</text><rect x="0" y="48" width="200" height="672" fill="#FFFFFF"/><line x1="200" y1="48" x2="200" y2="720" stroke="#E2E5EA"/><rect x="16" y="72" width="168" height="36" rx="8" fill="#003DA5"/><text x="100" y="94" text-anchor="middle" font-size="12" font-weight="500" fill="#FFFFFF">+ Nueva propuesta</text><text x="24" y="122" font-size="12" fill="#5A6070">Subir documento</text><text x="24" y="146" font-size="12" font-weight="500" fill="#C8102E">Aprob. pend. 2</text><text x="16" y="176" font-size="10" font-weight="600" fill="#8B92A0" letter-spacing="0.8">NAVEGACIÓN</text><text x="24" y="204" font-size="13" fill="#5A6070">Dashboards</text><rect x="8" y="222" width="184" height="32" rx="6" fill="#003DA5" opacity="0.06"/><rect x="4" y="228" width="3" height="20" rx="1.5" fill="#003DA5"/><text x="24" y="240" font-size="13" font-weight="600" fill="#003DA5">Mis iniciativas</text><text x="24" y="276" font-size="13" fill="#5A6070">Gateways</text><text x="16" y="314" font-size="10" font-weight="600" fill="#8B92A0" letter-spacing="0.8">ESTADO</text><rect x="16" y="330" width="87.5" height="22" rx="11" fill="#00843D" opacity="0.08"/><text x="59.0" y="345" text-anchor="middle" font-size="10" fill="#00843D">En progreso</text><rect x="109.5" y="330" width="74.5" height="22" rx="11" fill="#C8102E" opacity="0.08"/><text x="146.5" y="345" text-anchor="middle" font-size="10" fill="#C8102E">Pendiente</text><rect x="16" y="358" width="61.5" height="22" rx="11" fill="#8B92A0" opacity="0.08"/><text x="46.0" y="373" text-anchor="middle" font-size="10" fill="#8B92A0">Pausada</text><rect x="83.5" y="358" width="74.5" height="22" rx="11" fill="#8B92A0" opacity="0.08"/><text x="120.5" y="373" text-anchor="middle" font-size="10" fill="#8B92A0">Rechazada</text><rect x="16" y="386" width="87.5" height="22" rx="11" fill="#8B92A0" opacity="0.08"/><text x="59.0" y="401" text-anchor="middle" font-size="10" fill="#8B92A0">Cambio área</text><text x="224" y="82" font-size="18" font-weight="600" fill="#1A1D23">Mis iniciativas</text><rect x="216" y="92" width="414" height="32" rx="8" fill="#FFFFFF" stroke="#E2E5EA"/><text x="248" y="113" font-size="12" fill="#8B92A0">Buscar iniciativa...</text><text x="228" y="113" font-size="13" fill="#8B92A0">🔍</text><rect x="638" y="92" width="60" height="32" rx="8" fill="#FFFFFF" stroke="#E2E5EA"/><text x="648" y="113" font-size="12" fill="#5A6070">Etapa ▼</text><rect x="710" y="92" width="36" height="32" rx="8" fill="#FFFFFF" stroke="#E2E5EA"/><text x="720" y="113" font-size="12" fill="#5A6070">VP ▼</text><rect x="760" y="92" width="76" height="32" rx="8" fill="#FFFFFF" stroke="#E2E5EA"/><text x="770" y="113" font-size="12" fill="#5A6070">Ordenar ▼</text><rect x="216" y="132" width="828" height="32" fill="#FFFFFF"/><line x1="216" y1="163" x2="1044" y2="163" stroke="#E2E5EA"/><text x="232" y="154" font-size="12" font-weight="600" fill="#003DA5">Iniciativas propias</text><rect x="232" y="160" width="120" height="3" rx="1.5" fill="#003DA5"/><text x="376" y="154" font-size="12" fill="#5A6070">Que me impactan</text><rect x="216" y="176" width="406" height="148" rx="10" fill="#FFFFFF" filter="url(#s)"/><rect x="216" y="176" width="4" height="148" rx="2" fill="#003DA5"/><text x="236" y="204" font-size="14" font-weight="600" fill="#1A1D23">Optimización de pozo</text><rect x="236" y="212" width="70" height="22" rx="11" fill="#003DA5" opacity="0.08"/><text x="271" y="227" text-anchor="middle" font-size="10" font-weight="500" fill="#003DA5">Propuesta</text><rect x="314" y="212" width="82" height="22" rx="11" fill="#00843D" opacity="0.08"/><text x="355" y="227" text-anchor="middle" font-size="10" font-weight="500" fill="#00843D">En progreso</text><text x="236" y="254" font-size="11" fill="#5A6070">PO: J. García | LD: M. López</text><text x="236" y="274" font-size="9" font-weight="600" fill="#8B92A0" letter-spacing="0.3">VALOR ESP.</text><text x="236" y="290" font-size="12" font-weight="600" fill="#1A1D23">USD 1.2M</text><text x="361" y="274" font-size="9" font-weight="600" fill="#8B92A0" letter-spacing="0.3">GASTO ESP.</text><text x="361" y="290" font-size="12" font-weight="600" fill="#1A1D23">USD 180K</text><text x="486" y="274" font-size="9" font-weight="600" fill="#8B92A0" letter-spacing="0.3">HH AHORRO</text><text x="486" y="290" font-size="12" font-weight="600" fill="#1A1D23">2,400</text><circle cx="240" cy="306" r="3" fill="#C8102E"/><text x="248" y="310" font-size="10" fill="#C8102E">Completar sección 4</text><rect x="522" y="298" width="84" height="22" rx="6" fill="#003DA5" opacity="0.06"/><text x="564" y="313" text-anchor="middle" font-size="10" font-weight="500" fill="#003DA5">Ir a iniciativa →</text><rect x="634" y="176" width="406" height="148" rx="10" fill="#FFFFFF" filter="url(#s)"/><rect x="634" y="176" width="4" height="148" rx="2" fill="#003DA5"/><text x="654" y="204" font-size="14" font-weight="600" fill="#1A1D23">Monitoreo remoto</text><rect x="654" y="212" width="112" height="22" rx="11" fill="#003DA5" opacity="0.08"/><text x="710" y="227" text-anchor="middle" font-size="10" font-weight="500" fill="#003DA5">Dimensionamiento</text><rect x="774" y="212" width="88" height="22" rx="11" fill="#C8102E" opacity="0.08"/><text x="818" y="227" text-anchor="middle" font-size="10" font-weight="500" fill="#C8102E">Pend. aprob.</text><text x="654" y="254" font-size="11" fill="#5A6070">PO: R. Fernández | BO: A. Torres</text><text x="654" y="274" font-size="9" font-weight="600" fill="#8B92A0" letter-spacing="0.3">VALOR ESP.</text><text x="654" y="290" font-size="12" font-weight="600" fill="#1A1D23">USD 3.5M</text><text x="779" y="274" font-size="9" font-weight="600" fill="#8B92A0" letter-spacing="0.3">GASTO ESP.</text><text x="779" y="290" font-size="12" font-weight="600" fill="#1A1D23">USD 420K</text><text x="904" y="274" font-size="9" font-weight="600" fill="#8B92A0" letter-spacing="0.3">OPEX RED.</text><text x="904" y="290" font-size="12" font-weight="600" fill="#1A1D23">USD 800K</text><circle cx="658" cy="306" r="3" fill="#C8102E"/><text x="666" y="310" font-size="10" fill="#C8102E">Gateway 2: tu voto pendiente</text><rect x="940" y="298" width="84" height="22" rx="6" fill="#003DA5" opacity="0.06"/><text x="982" y="313" text-anchor="middle" font-size="10" font-weight="500" fill="#003DA5">Ir a iniciativa →</text><rect x="216" y="336" width="406" height="148" rx="10" fill="#FFFFFF" filter="url(#s)"/><rect x="216" y="336" width="4" height="148" rx="2" fill="#00843D"/><text x="236" y="364" font-size="14" font-weight="600" fill="#1A1D23">Gestión de integridad</text><rect x="236" y="372" width="34" height="22" rx="11" fill="#00843D" opacity="0.08"/><text x="253" y="387" text-anchor="middle" font-size="10" font-weight="500" fill="#00843D">MVP</text><rect x="278" y="372" width="82" height="22" rx="11" fill="#00843D" opacity="0.08"/><text x="319" y="387" text-anchor="middle" font-size="10" font-weight="500" fill="#00843D">En progreso</text><text x="236" y="414" font-size="11" fill="#5A6070">PO: L. Martínez | SM: C. Ruiz</text><text x="236" y="434" font-size="9" font-weight="600" fill="#8B92A0" letter-spacing="0.3">VALOR ESP.</text><text x="236" y="450" font-size="12" font-weight="600" fill="#1A1D23">USD 950K</text><text x="361" y="434" font-size="9" font-weight="600" fill="#8B92A0" letter-spacing="0.3">GASTO ESP.</text><text x="361" y="450" font-size="12" font-weight="600" fill="#1A1D23">USD 95K</text><text x="486" y="434" font-size="9" font-weight="600" fill="#8B92A0" letter-spacing="0.3">PROD. M3</text><text x="486" y="450" font-size="12" font-weight="600" fill="#1A1D23">+12K m3</text><rect x="522" y="458" width="84" height="22" rx="6" fill="#003DA5" opacity="0.06"/><text x="564" y="473" text-anchor="middle" font-size="10" font-weight="500" fill="#003DA5">Ir a iniciativa →</text><rect x="634" y="336" width="406" height="148" rx="10" fill="#FFFFFF" filter="url(#s)"/><rect x="634" y="336" width="4" height="148" rx="2" fill="#003DA5"/><text x="654" y="364" font-size="14" font-weight="600" fill="#1A1D23">Automatización bombeo</text><rect x="654" y="372" width="112" height="22" rx="11" fill="#003DA5" opacity="0.08"/><text x="710" y="387" text-anchor="middle" font-size="10" font-weight="500" fill="#003DA5">Dimensionamiento</text><rect x="774" y="372" width="82" height="22" rx="11" fill="#00843D" opacity="0.08"/><text x="815" y="387" text-anchor="middle" font-size="10" font-weight="500" fill="#00843D">En progreso</text><text x="654" y="414" font-size="11" fill="#5A6070">PO: F. Álvarez | BO: D. González</text><text x="654" y="434" font-size="9" font-weight="600" fill="#8B92A0" letter-spacing="0.3">VALOR ESP.</text><text x="654" y="450" font-size="12" font-weight="600" fill="#1A1D23">USD 5.2M</text><text x="779" y="434" font-size="9" font-weight="600" fill="#8B92A0" letter-spacing="0.3">GASTO ESP.</text><text x="779" y="450" font-size="12" font-weight="600" fill="#1A1D23">USD 620K</text><text x="904" y="434" font-size="9" font-weight="600" fill="#8B92A0" letter-spacing="0.3">OPEX RED.</text><text x="904" y="450" font-size="12" font-weight="600" fill="#1A1D23">USD 3.1M</text><rect x="940" y="458" width="84" height="22" rx="6" fill="#003DA5" opacity="0.06"/><text x="982" y="473" text-anchor="middle" font-size="10" font-weight="500" fill="#003DA5">Ir a iniciativa →</text><rect x="216" y="664" width="828" height="40" rx="8" fill="#F7F8FA" stroke="#E2E5EA"/><text x="232" y="688" font-size="11" fill="#5A6070">Cada usuario ve sus iniciativas. "Iniciativas propias" muestra donde es PO/Promotor/LD.</text><text x="232" y="702" font-size="11" fill="#5A6070">"Que me impactan" muestra donde participa en gate, es BO de área involucrada, o está en el equipo.</text></svg>