<svg viewBox="0 0 1060 560" xmlns="http://www.w3.org/2000/svg"><title>PAE Tab Equipo</title><defs><style>@import url('https://fonts.googleapis.com/css2?family=Inter:wght@300;400;500;600;700&amp;display=swap');text,tspan{font-family:'Inter',sans-serif;}</style><filter id="s" x="-4%" y="-4%" width="108%" height="116%"><feDropShadow dx="0" dy="1" stdDeviation="2" flood-opacity="0.06"/></filter></defs><rect width="1060" height="560" fill="#F7F8FA"/><rect width="1060" height="48" fill="#FFFFFF" filter="url(#s)"/><line x1="0" y1="48" x2="1060" y2="48" stroke="#E2E5EA"/><g transform="translate(16,16)"><rect width="4" height="16" rx="1" fill="#C8102E" y="-2"/><text x="8" y="11" font-size="13" font-weight="700" fill="#1A1D23">PAE</text><text x="42" y="11" font-size="10" fill="#5A6070">Gestión de Portfolio</text></g><text x="200" y="30" font-size="12" fill="#8B92A0">Propuesta</text><text x="290" y="30" font-size="12" fill="#8B92A0">Dimensionamiento</text><text x="410" y="30" font-size="12" fill="#8B92A0">MVP</text><text x="465" y="30" font-size="12" fill="#8B92A0">Delivery</text><circle cx="990" cy="24" r="14" stroke="#E2E5EA" fill="none"/><text x="990" y="28" text-anchor="middle" font-size="13" fill="#5A6070">🔔</text><circle cx="996" cy="16" r="7" fill="#C8102E"/><text x="996" y="19" text-anchor="middle" font-size="8" font-weight="600" fill="#FFFFFF">2</text><circle cx="1032" cy="24" r="14" fill="#C8102E" opacity="0.12"/><text x="1032" y="28" text-anchor="middle" font-size="10" font-weight="600" fill="#C8102E">CR</text><rect x="0" y="48" width="200" height="512" fill="#FFFFFF"/><line x1="200" y1="48" x2="200" y2="560" stroke="#E2E5EA"/><rect x="16" y="72" width="168" height="36" rx="8" fill="#003DA5"/><text x="100" y="94" text-anchor="middle" font-size="12" font-weight="500" fill="#FFFFFF">+ Nueva propuesta</text><text x="24" y="122" font-size="12" fill="#5A6070">Subir documento</text><text x="24" y="146" font-size="12" font-weight="500" fill="#C8102E">Aprob. pend. 2</text><text x="16" y="176" font-size="10" font-weight="600" fill="#8B92A0" letter-spacing="0.8">NAVEGACIÓN</text><text x="24" y="204" font-size="13" fill="#5A6070">Dashboards</text><rect x="8" y="222" width="184" height="32" rx="6" fill="#003DA5" opacity="0.06"/><rect x="4" y="228" width="3" height="20" rx="1.5" fill="#003DA5"/><text x="24" y="240" font-size="13" font-weight="600" fill="#003DA5">Mis iniciativas</text><text x="24" y="276" font-size="13" fill="#5A6070">Gateways</text><text x="16" y="314" font-size="10" font-weight="600" fill="#8B92A0" letter-spacing="0.8">ESTADO</text><rect x="16" y="330" width="87.5" height="22" rx="11" fill="#00843D" opacity="0.08"/><text x="59" y="345" text-anchor="middle" font-size="10" fill="#00843D">En progreso</text><rect x="16" y="356" width="74.5" height="22" rx="11" fill="#C8102E" opacity="0.08"/><text x="53" y="371" text-anchor="middle" font-size="10" fill="#C8102E">Pendiente</text><rect x="16" y="382" width="61.5" height="22" rx="11" fill="#8B92A0" opacity="0.08"/><text x="46" y="397" text-anchor="middle" font-size="10" fill="#8B92A0">Pausada</text><rect x="16" y="408" width="74.5" height="22" rx="11" fill="#8B92A0" opacity="0.08"/><text x="53" y="423" text-anchor="middle" font-size="10" fill="#8B92A0">Rechazada</text><rect x="16" y="434" width="87.5" height="22" rx="11" fill="#8B92A0" opacity="0.08"/><text x="59" y="449" text-anchor="middle" font-size="10" fill="#8B92A0">Cambio área</text><text x="224" y="72" font-size="11" fill="#5A6070">Mis iniciativas  ›  Optimización de pozo</text><text x="224" y="96" font-size="18" font-weight="600" fill="#1A1D23">Optimización de pozo</text><rect x="476" y="80" width="64" height="22" rx="11" fill="#00843D" opacity="0.08"/><text x="508" y="95" text-anchor="middle" font-size="10" font-weight="500" fill="#00843D">Delivery</text><rect x="556" y="80" width="82" height="22" rx="11" fill="#00843D" opacity="0.08"/><text x="597" y="95" text-anchor="middle" font-size="10" font-weight="500" fill="#00843D">En progreso</text><rect x="216" y="118" width="828" height="36" fill="#FFFFFF"/><line x1="216" y1="153" x2="1044" y2="153" stroke="#E2E5EA"/><text x="232" y="142" font-size="12" fill="#5A6070">Resumen</text><text x="301" y="142" font-size="12" fill="#5A6070">Eventos</text><text x="370" y="142" font-size="12" fill="#5A6070">Formularios</text><text x="467" y="142" font-size="12" fill="#5A6070">Documentos</text><text x="557" y="142" font-size="12" font-weight="600" fill="#003DA5">Equipo</text><rect x="557" y="150" width="42" height="3" rx="1.5" fill="#003DA5"/><text x="619" y="142" font-size="12" fill="#5A6070">Mesa de trabajo</text><text x="864" y="180" font-size="11" font-weight="500" fill="#003DA5">+ Agregar al equipo</text><text x="994" y="180" font-size="11" font-weight="500" fill="#C8102E">Sacar</text><text x="864" y="194" font-size="9" fill="#8B92A0">Solo visible para Área Transformación</text><rect x="216" y="208" width="828" height="130" rx="10" fill="#FFFFFF" filter="url(#s)"/><text x="232" y="232" font-size="13" font-weight="600" fill="#1A1D23">Equipo de trabajo</text><text x="232" y="256" font-size="9" font-weight="600" fill="#8B92A0" letter-spacing="0.5">NOMBRE</text><text x="376" y="256" font-size="9" font-weight="600" fill="#8B92A0" letter-spacing="0.5">ROL</text><text x="516" y="256" font-size="9" font-weight="600" fill="#8B92A0" letter-spacing="0.5">ASIGNACIÓN</text><text x="616" y="256" font-size="9" font-weight="600" fill="#8B92A0" letter-spacing="0.5">INT/EXT</text><text x="706" y="256" font-size="9" font-weight="600" fill="#8B92A0" letter-spacing="0.5">VP</text><text x="796" y="256" font-size="9" font-weight="600" fill="#8B92A0" letter-spacing="0.5">COSTO/MES</text><line x1="232" y1="262" x2="1028" y2="262" stroke="#E2E5EA"/><text x="232" y="280" font-size="11" fill="#1A1D23">J. García</text><text x="376" y="280" font-size="11" fill="#5A6070">Product Owner</text><text x="516" y="280" font-size="11" fill="#5A6070">80%</text><rect x="616" y="266" width="58" height="22" rx="11" fill="#003DA5" opacity="0.08"/><text x="645" y="281" text-anchor="middle" font-size="10" font-weight="500" fill="#003DA5">Interno</text><text x="706" y="280" font-size="11" fill="#5A6070">Upstream</text><text x="796" y="280" font-size="11" fill="#5A6070">—</text><text x="232" y="304" font-size="11" fill="#1A1D23">M. López</text><text x="376" y="304" font-size="11" fill="#5A6070">Líder Dimensión</text><text x="516" y="304" font-size="11" fill="#5A6070">50%</text><rect x="616" y="290" width="58" height="22" rx="11" fill="#003DA5" opacity="0.08"/><text x="645" y="305" text-anchor="middle" font-size="10" font-weight="500" fill="#003DA5">Interno</text><text x="706" y="304" font-size="11" fill="#5A6070">Upstream</text><text x="796" y="304" font-size="11" fill="#5A6070">—</text><text x="232" y="328" font-size="11" fill="#1A1D23">C. Ruiz</text><text x="376" y="328" font-size="11" fill="#5A6070">Scrum Master</text><text x="516" y="328" font-size="11" fill="#5A6070">30%</text><rect x="616" y="314" width="58" height="22" rx="11" fill="#003DA5" opacity="0.08"/><text x="645" y="329" text-anchor="middle" font-size="10" font-weight="500" fill="#003DA5">Interno</text><text x="706" y="328" font-size="11" fill="#5A6070">Transf.</text><text x="796" y="328" font-size="11" fill="#5A6070">—</text><text x="232" y="352" font-size="11" fill="#1A1D23">P. Díaz (Accenture)</text><text x="376" y="352" font-size="11" fill="#5A6070">Arquitecto</text><text x="516" y="352" font-size="11" fill="#5A6070">100%</text><rect x="616" y="338" width="58" height="22" rx="11" fill="#C8102E" opacity="0.08"/><text x="645" y="353" text-anchor="middle" font-size="10" font-weight="500" fill="#C8102E">Externo</text><text x="706" y="352" font-size="11" fill="#5A6070">—</text><text x="796" y="352" font-size="11" fill="#5A6070">USD 8K</text><rect x="216" y="352" width="828" height="80" rx="10" fill="#FFFFFF" filter="url(#s)"/><text x="232" y="376" font-size="13" font-weight="600" fill="#1A1D23">Alineación estratégica</text><text x="232" y="400" font-size="9" font-weight="600" fill="#8B92A0" letter-spacing="0.5">NOMBRE</text><text x="376" y="400" font-size="9" font-weight="600" fill="#8B92A0" letter-spacing="0.5">ROL</text><text x="616" y="400" font-size="9" font-weight="600" fill="#8B92A0" letter-spacing="0.5">VP</text><line x1="232" y1="406" x2="1028" y2="406" stroke="#E2E5EA"/><text x="232" y="424" font-size="11" fill="#1A1D23">R. Méndez</text><text x="376" y="424" font-size="11" fill="#5A6070">Sponsor</text><text x="616" y="424" font-size="11" fill="#5A6070">VP Upstream</text><rect x="216" y="446" width="828" height="80" rx="10" fill="#FFFFFF" filter="url(#s)"/><text x="232" y="470" font-size="13" font-weight="600" fill="#1A1D23">Interesados</text><text x="232" y="494" font-size="9" font-weight="600" fill="#8B92A0" letter-spacing="0.5">NOMBRE</text><text x="376" y="494" font-size="9" font-weight="600" fill="#8B92A0" letter-spacing="0.5">RELACIÓN</text><line x1="232" y1="500" x2="1028" y2="500" stroke="#E2E5EA"/><text x="232" y="518" font-size="11" fill="#1A1D23">A. Torres</text><text x="376" y="518" font-size="11" fill="#5A6070">Business Owner — Área impactada</text></svg>