<svg viewBox="0 0 1060 700" xmlns="http://www.w3.org/2000/svg"><title>PAE Dashboard — Business Owner</title><defs><style>@import url('https://fonts.googleapis.com/css2?family=Inter:wght@300;400;500;600;700&amp;display=swap');text,tspan{font-family:'Inter',sans-serif;}</style><filter id="s" x="-4%" y="-4%" width="108%" height="116%"><feDropShadow dx="0" dy="1" stdDeviation="2" flood-opacity="0.06"/></filter></defs><rect width="1060" height="700" fill="#F7F8FA"/><rect width="1060" height="48" fill="#FFFFFF" filter="url(#s)"/><line x1="0" y1="48" x2="1060" y2="48" stroke="#E2E5EA"/><g transform="translate(16,16)"><rect width="4" height="16" rx="1" fill="#C8102E" y="-2"/><text x="8" y="11" font-size="13" font-weight="700" fill="#1A1D23">PAE</text><text x="42" y="11" font-size="10" fill="#5A6070">Gestión de Portfolio</text></g><text x="200" y="30" font-size="12" fill="#8B92A0">Propuesta</text><text x="290" y="30" font-size="12" fill="#8B92A0">Dimensionamiento</text><text x="410" y="30" font-size="12" fill="#8B92A0">MVP</text><text x="465" y="30" font-size="12" fill="#8B92A0">Delivery</text><circle cx="990" cy="24" r="14" stroke="#E2E5EA" fill="none"/><text x="990" y="28" text-anchor="middle" font-size="13" fill="#5A6070">🔔</text><circle cx="996" cy="16" r="7" fill="#C8102E"/><text x="996" y="19" text-anchor="middle" font-size="8" font-weight="600" fill="#FFFFFF">1</text><circle cx="1032" cy="24" r="14" fill="#00843D" opacity="0.12"/><text x="1032" y="28" text-anchor="middle" font-size="10" font-weight="600" fill="#00843D">AT</text><rect x="0" y="48" width="200" height="652" fill="#FFFFFF"/><line x1="200" y1="48" x2="200" y2="700" stroke="#E2E5EA"/><text x="24" y="78" font-size="12" fill="#5A6070">Subir documento</text><text x="24" y="102" font-size="12" font-weight="500" fill="#C8102E">Aprob. pend. 1</text><text x="16" y="132" font-size="10" font-weight="600" fill="#8B92A0" letter-spacing="0.8">NAVEGACIÓN</text><rect x="8" y="142" width="184" height="32" rx="6" fill="#003DA5" opacity="0.06"/><rect x="4" y="148" width="3" height="20" rx="1.5" fill="#003DA5"/><text x="24" y="160" font-size="13" font-weight="600" fill="#003DA5">Dashboards</text><text x="24" y="196" font-size="13" fill="#5A6070">Mis iniciativas</text><text x="24" y="232" font-size="13" fill="#5A6070">Gateways</text><text x="16" y="270" font-size="10" font-weight="600" fill="#8B92A0" letter-spacing="0.8">ESTADO</text><rect x="16" y="286" width="87.5" height="22" rx="11" fill="#00843D" opacity="0.08"/><text x="59" y="301" text-anchor="middle" font-size="10" fill="#00843D">En progreso</text><rect x="16" y="312" width="74.5" height="22" rx="11" fill="#C8102E" opacity="0.08"/><text x="53" y="327" text-anchor="middle" font-size="10" fill="#C8102E">Pendiente</text><rect x="16" y="338" width="61.5" height="22" rx="11" fill="#8B92A0" opacity="0.08"/><text x="46" y="353" text-anchor="middle" font-size="10" fill="#8B92A0">Pausada</text><rect x="16" y="364" width="74.5" height="22" rx="11" fill="#8B92A0" opacity="0.08"/><text x="53" y="379" text-anchor="middle" font-size="10" fill="#8B92A0">Rechazada</text><rect x="16" y="390" width="87.5" height="22" rx="11" fill="#8B92A0" opacity="0.08"/><text x="59" y="405" text-anchor="middle" font-size="10" fill="#8B92A0">Cambio área</text><text x="224" y="82" font-size="18" font-weight="600" fill="#1A1D23">Dashboards — Business Owner: A. Torres (3 inic.)</text><text x="994" y="82" font-size="11" font-weight="500" fill="#C8102E">Descargar PPTX</text><rect x="216" y="96" width="201" height="68" rx="10" fill="#FFFFFF" filter="url(#s)"/><rect x="216" y="96" width="201" height="4" rx="2" fill="#00843D"/><text x="228" y="120" font-size="9" font-weight="600" fill="#8B92A0" letter-spacing="0.5">INICIATIVAS</text><text x="228" y="148" font-size="20" font-weight="700" fill="#1A1D23">3</text><rect x="425" y="96" width="201" height="68" rx="10" fill="#FFFFFF" filter="url(#s)"/><rect x="425" y="96" width="201" height="4" rx="2" fill="#00843D"/><text x="437" y="120" font-size="9" font-weight="600" fill="#8B92A0" letter-spacing="0.5">VALOR TOTAL</text><text x="437" y="148" font-size="20" font-weight="700" fill="#1A1D23">USD 8.8M</text><rect x="634" y="96" width="201" height="68" rx="10" fill="#FFFFFF" filter="url(#s)"/><rect x="634" y="96" width="201" height="4" rx="2" fill="#5A6070"/><text x="646" y="120" font-size="9" font-weight="600" fill="#8B92A0" letter-spacing="0.5">GASTO TOTAL</text><text x="646" y="148" font-size="20" font-weight="700" fill="#1A1D23">USD 1.45M</text><rect x="843" y="96" width="201" height="68" rx="10" fill="#FFFFFF" filter="url(#s)"/><rect x="843" y="96" width="201" height="4" rx="2" fill="#C8102E"/><text x="855" y="120" font-size="9" font-weight="600" fill="#8B92A0" letter-spacing="0.5">GATES PEND.</text><text x="855" y="148" font-size="20" font-weight="700" fill="#1A1D23">1</text><rect x="216" y="178" width="410" height="140" rx="10" fill="#FFFFFF" filter="url(#s)"/><text x="232" y="206" font-size="14" font-weight="600" fill="#1A1D23">Distribución por etapa</text><rect x="256" y="258" width="60" height="50" rx="4" fill="#003DA5" opacity="0.6"/><text x="286" y="262" text-anchor="middle" font-size="11" font-weight="600" fill="#1A1D23">1</text><text x="286" y="314" text-anchor="middle" font-size="9" fill="#5A6070">Dim.</text><rect x="356" y="258" width="60" height="50" rx="4" fill="#00843D" opacity="0.6"/><text x="386" y="262" text-anchor="middle" font-size="11" font-weight="600" fill="#1A1D23">1</text><text x="386" y="314" text-anchor="middle" font-size="9" fill="#5A6070">MVP</text><rect x="456" y="258" width="60" height="50" rx="4" fill="#00843D" opacity="0.6"/><text x="486" y="262" text-anchor="middle" font-size="11" font-weight="600" fill="#1A1D23">1</text><text x="486" y="314" text-anchor="middle" font-size="9" fill="#5A6070">Delivery</text><rect x="634" y="178" width="410" height="140" rx="10" fill="#FFFFFF" filter="url(#s)"/><text x="650" y="206" font-size="14" font-weight="600" fill="#1A1D23">Corrientes de valor</text><rect x="660" y="245" width="40" height="63" rx="4" fill="#00843D" opacity="0.5"/><text x="680" y="249" text-anchor="middle" font-size="10" font-weight="600" fill="#1A1D23">4.2M</text><text x="680" y="314" text-anchor="middle" font-size="9" fill="#5A6070">Prod</text><rect x="740" y="275" width="40" height="33" rx="4" fill="#00843D" opacity="0.5"/><text x="760" y="279" text-anchor="middle" font-size="10" font-weight="600" fill="#1A1D23">2.2M</text><text x="760" y="314" text-anchor="middle" font-size="9" fill="#5A6070">OPEX</text><rect x="820" y="281" width="40" height="27" rx="4" fill="#00843D" opacity="0.5"/><text x="840" y="285" text-anchor="middle" font-size="10" font-weight="600" fill="#1A1D23">1.8M</text><text x="840" y="314" text-anchor="middle" font-size="9" fill="#5A6070">CAPEX</text><rect x="900" y="293" width="40" height="15" rx="4" fill="#00843D" opacity="0.5"/><text x="920" y="297" text-anchor="middle" font-size="10" font-weight="600" fill="#1A1D23">6.3K</text><text x="920" y="314" text-anchor="middle" font-size="9" fill="#5A6070">HH</text><rect x="216" y="330" width="828" height="140" rx="10" fill="#FFFFFF" filter="url(#s)"/><text x="232" y="358" font-size="14" font-weight="600" fill="#1A1D23">Ranking iniciativas</text><text x="944" y="358" font-size="11" fill="#5A6070">Ordenar: ▼ ROI</text><text x="232" y="380" font-size="9" font-weight="600" fill="#8B92A0" letter-spacing="0.5">INICIATIVA</text><text x="456" y="380" font-size="9" font-weight="600" fill="#8B92A0" letter-spacing="0.5">ETAPA</text><text x="556" y="380" font-size="9" font-weight="600" fill="#8B92A0" letter-spacing="0.5">VALOR ESP.</text><text x="656" y="380" font-size="9" font-weight="600" fill="#8B92A0" letter-spacing="0.5">GASTO ESP.</text><text x="756" y="380" font-size="9" font-weight="600" fill="#8B92A0" letter-spacing="0.5">ROI</text><text x="836" y="380" font-size="9" font-weight="600" fill="#8B92A0" letter-spacing="0.5">ESTADO</text><line x1="232" y1="386" x2="1028" y2="386" stroke="#E2E5EA"/><text x="232" y="406" font-size="11" fill="#1A1D23">Monitoreo remoto</text><rect x="456" y="392" width="40" height="22" rx="11" fill="#003DA5" opacity="0.08"/><text x="476" y="407" text-anchor="middle" font-size="10" font-weight="500" fill="#003DA5">Dim.</text><text x="556" y="406" font-size="11" fill="#1A1D23">USD 3.5M</text><text x="656" y="406" font-size="11" fill="#5A6070">USD 420K</text><text x="756" y="406" font-size="11" font-weight="600" fill="#00843D">8.3x</text><rect x="836" y="392" width="40" height="22" rx="11" fill="#C8102E" opacity="0.08"/><text x="856" y="407" text-anchor="middle" font-size="10" font-weight="500" fill="#C8102E">Gate</text><text x="232" y="438" font-size="11" fill="#1A1D23">Optimización de pozo</text><rect x="456" y="424" width="40" height="22" rx="11" fill="#00843D" opacity="0.08"/><text x="476" y="439" text-anchor="middle" font-size="10" font-weight="500" fill="#00843D">Del.</text><text x="556" y="438" font-size="11" fill="#1A1D23">USD 1.2M</text><text x="656" y="438" font-size="11" fill="#5A6070">USD 180K</text><text x="756" y="438" font-size="11" font-weight="600" fill="#00843D">6.7x</text><rect x="836" y="424" width="28" height="22" rx="11" fill="#00843D" opacity="0.08"/><text x="850" y="439" text-anchor="middle" font-size="10" font-weight="500" fill="#00843D">OK</text><text x="232" y="470" font-size="11" fill="#1A1D23">Predictivo fallas</text><rect x="456" y="456" width="34" height="22" rx="11" fill="#00843D" opacity="0.08"/><text x="473" y="471" text-anchor="middle" font-size="10" font-weight="500" fill="#00843D">MVP</text><text x="556" y="470" font-size="11" fill="#1A1D23">USD 4.1M</text><text x="656" y="470" font-size="11" fill="#5A6070">USD 850K</text><text x="756" y="470" font-size="11" font-weight="600" fill="#00843D">4.8x</text><rect x="836" y="456" width="28" height="22" rx="11" fill="#00843D" opacity="0.08"/><text x="850" y="471" text-anchor="middle" font-size="10" font-weight="500" fill="#00843D">OK</text><rect x="216" y="484" width="828" height="90" rx="10" fill="#FFFFFF" filter="url(#s)"/><text x="232" y="512" font-size="14" font-weight="600" fill="#1A1D23">Próximos eventos</text><circle cx="256" cy="536" r="5" fill="#C8102E"/><text x="256" y="554" text-anchor="middle" font-size="10" font-weight="500" fill="#1A1D23">Gate 1</text><text x="256" y="566" text-anchor="middle" font-size="9" fill="#5A6070">25 abr</text><circle cx="463" cy="536" r="5" fill="#00843D"/><text x="463" y="554" text-anchor="middle" font-size="10" font-weight="500" fill="#1A1D23">Entrega Q2</text><text x="463" y="566" text-anchor="middle" font-size="9" fill="#5A6070">30 abr</text><circle cx="670" cy="536" r="5" fill="#00843D"/><text x="670" y="554" text-anchor="middle" font-size="10" font-weight="500" fill="#1A1D23">LTP Plan</text><text x="670" y="566" text-anchor="middle" font-size="9" fill="#5A6070">5 may</text><circle cx="877" cy="536" r="5" fill="#003DA5"/><text x="877" y="554" text-anchor="middle" font-size="10" font-weight="500" fill="#1A1D23">Seg. mensual</text><text x="877" y="566" text-anchor="middle" font-size="9" fill="#5A6070">15 may</text><rect x="216" y="586" width="130" height="28" rx="6" fill="#FFFFFF" stroke="#E2E5EA"/><text x="232" y="604" font-size="11" font-weight="500" fill="#003DA5">+ Agregar evento</text></svg>