<svg viewBox="0 0 1060 1060" xmlns="http://www.w3.org/2000/svg"><title>PAE Detalle — Resumen (etapas 1-3)</title>
<defs><style>@import url('https://fonts.googleapis.com/css2?family=Inter:wght@300;400;500;600;700&amp;display=swap');text,tspan{font-family:'Inter',sans-serif;}</style>
<filter id="s" x="-4%" y="-4%" width="108%" height="116%"><feDropShadow dx="0" dy="1" stdDeviation="2" flood-opacity="0.06"/></filter></defs>
<rect width="1060" height="1060" fill="#F7F8FA"/><rect width="1060" height="48" fill="#FFFFFF" filter="url(#s)"/><line x1="0" y1="48" x2="1060" y2="48" stroke="#E2E5EA"/><g transform="translate(16,16)"><rect width="4" height="16" rx="1" fill="#C8102E" y="-2"/><text x="8" y="11" font-size="13" font-weight="700" fill="#1A1D23">PAE</text><text x="42" y="11" font-size="10" fill="#5A6070">Gestión de Portfolio</text></g><text x="200" y="30" font-size="12" fill="#8B92A0">Propuesta</text><text x="290" y="30" font-size="12" fill="#8B92A0">Dimensionamiento</text><text x="410" y="30" font-size="12" fill="#8B92A0">MVP</text><text x="465" y="30" font-size="12" fill="#8B92A0">Delivery</text><circle cx="990" cy="24" r="14" stroke="#E2E5EA" fill="none"/><text x="990" y="28" text-anchor="middle" font-size="13" fill="#5A6070">🔔</text><circle cx="996" cy="16" r="7" fill="#C8102E"/><text x="996" y="19" text-anchor="middle" font-size="8" font-weight="600" fill="#FFFFFF">3</text><circle cx="1032" cy="24" r="14" fill="#003DA5" opacity="0.12"/><text x="1032" y="28" text-anchor="middle" font-size="10" font-weight="600" fill="#003DA5">JG</text><rect x="0" y="48" width="200" height="1012" fill="#FFFFFF"/><line x1="200" y1="48" x2="200" y2="1060" stroke="#E2E5EA"/><rect x="16" y="72" width="168" height="36" rx="8" fill="#003DA5"/><text x="100" y="94" text-anchor="middle" font-size="12" font-weight="500" fill="#FFFFFF">+ Nueva propuesta</text><text x="24" y="122" font-size="12" fill="#5A6070">Subir documento</text><text x="24" y="146" font-size="12" font-weight="500" fill="#C8102E">Aprob. pend. 2</text><text x="16" y="172" font-size="10" font-weight="600" fill="#8B92A0" letter-spacing="0.8">NAVEGACIÓN</text><text x="24" y="200" font-size="13" fill="#5A6070">Dashboards</text><rect x="8" y="218" width="184" height="32" rx="6" fill="#003DA5" opacity="0.06"/><text x="24" y="236" font-size="13" font-weight="600" fill="#003DA5">Mis iniciativas</text><text x="24" y="272" font-size="13" fill="#5A6070">Gateways</text><text x="224" y="72" font-size="11" fill="#5A6070">Mis iniciativas  ›  <tspan font-weight="500" fill="#1A1D23">Optimización de pozo</tspan></text><text x="224" y="98" font-size="20" font-weight="600" fill="#1A1D23">Optimización de pozo</text><rect x="476" y="82" width="70" height="22" rx="11" fill="#003DA5" opacity="0.08"/><text x="511" y="97" text-anchor="middle" font-size="10" font-weight="500" fill="#003DA5">Propuesta</text><rect x="554" y="82" width="82" height="22" rx="11" fill="#00843D" opacity="0.08"/><text x="595" y="97" text-anchor="middle" font-size="10" font-weight="500" fill="#00843D">En progreso</text><text x="224" y="118" font-size="11" fill="#5A6070">Dim: Producción | PO: J. García | BO: A. Torres | Sponsor: R. Méndez</text><rect x="884" y="82" width="70" height="30" rx="6" fill="#C8102E" opacity="0.06"/><text x="919" y="102" text-anchor="middle" font-size="11" font-weight="600" fill="#C8102E">PPTX</text><rect x="962" y="82" width="80" height="30" rx="6" fill="#F7F8FA" stroke="#E2E5EA"/><text x="1002" y="102" text-anchor="middle" font-size="10" fill="#5A6070">Nota prensa</text><rect x="216" y="130" width="828" height="36" fill="#FFFFFF"/><line x1="216" y1="165" x2="1044" y2="165" stroke="#E2E5EA"/><text x="232" y="154" font-size="12" font-weight="600" fill="#003DA5">Resumen</text><rect x="232" y="162" width="49" height="3" rx="1.5" fill="#003DA5"/><text x="301" y="154" font-size="12" fill="#5A6070">Eventos</text><text x="370" y="154" font-size="12" fill="#5A6070">Formularios</text><text x="467" y="154" font-size="12" fill="#5A6070">Documentos</text><text x="557" y="154" font-size="12" fill="#5A6070">Equipo</text><text x="619" y="154" font-size="12" fill="#5A6070">Mesa de trabajo 🔒</text><text x="758" y="154" font-size="9" fill="#8B92A0">← se desbloquea etapa 4</text><rect x="216" y="178" width="828" height="48" rx="10" fill="#FFFFFF" filter="url(#s)"/><text x="232" y="198" font-size="13" font-weight="600" fill="#1A1D23">Propósito</text><text x="232" y="216" font-size="11" fill="#5A6070">Para ingenieros de producción que necesitan optimizar el rendimiento de pozos maduros...</text><rect x="216" y="238" width="201" height="64" rx="10" fill="#FFFFFF" filter="url(#s)"/><text x="228" y="260" font-size="9" font-weight="600" fill="#8B92A0" letter-spacing="0.5">VALOR ESPERADO</text><text x="228" y="286" font-size="18" font-weight="700" fill="#1A1D23">USD 1.2M</text><rect x="425" y="238" width="201" height="64" rx="10" fill="#FFFFFF" filter="url(#s)"/><text x="437" y="260" font-size="9" font-weight="600" fill="#8B92A0" letter-spacing="0.5">GASTO ESPERADO</text><text x="437" y="286" font-size="18" font-weight="700" fill="#1A1D23">USD 180K</text><rect x="634" y="238" width="201" height="64" rx="10" fill="#FFFFFF" filter="url(#s)"/><text x="646" y="260" font-size="9" font-weight="600" fill="#8B92A0" letter-spacing="0.5">ROI</text><text x="646" y="286" font-size="18" font-weight="700" fill="#1A1D23">6.7x</text><rect x="843" y="238" width="201" height="64" rx="10" fill="#FFFFFF" filter="url(#s)"/><text x="855" y="260" font-size="9" font-weight="600" fill="#8B92A0" letter-spacing="0.5">HH OPTIMIZADAS</text><text x="855" y="286" font-size="18" font-weight="700" fill="#1A1D23">2,400</text><rect x="216" y="316" width="828" height="140" rx="10" fill="#FFFFFF" filter="url(#s)"/><text x="232" y="340" font-size="13" font-weight="600" fill="#1A1D23">Corrientes de valor — 5 años</text><text x="232" y="364" font-size="9" font-weight="600" fill="#8B92A0" letter-spacing="0.5">CORRIENTE</text><text x="416" y="364" font-size="9" font-weight="600" fill="#8B92A0" letter-spacing="0.5">AÑO 1</text><text x="536" y="364" font-size="9" font-weight="600" fill="#8B92A0" letter-spacing="0.5">AÑO 3</text><text x="656" y="364" font-size="9" font-weight="600" fill="#8B92A0" letter-spacing="0.5">AÑO 5</text><line x1="232" y1="370" x2="1028" y2="370" stroke="#E2E5EA"/><text x="232" y="388" font-size="11" fill="#1A1D23">Producción</text><text x="416" y="388" font-size="11" fill="#5A6070">+8K</text><text x="536" y="388" font-size="11" fill="#5A6070">+15K</text><text x="656" y="388" font-size="11" font-weight="600" fill="#00843D">+22K</text><text x="232" y="410" font-size="11" fill="#1A1D23">OPEX (USD)</text><text x="416" y="410" font-size="11" fill="#5A6070">-120K</text><text x="536" y="410" font-size="11" fill="#5A6070">-280K</text><text x="656" y="410" font-size="11" font-weight="600" fill="#00843D">-350K</text><text x="232" y="432" font-size="11" fill="#1A1D23">CAPEX (USD)</text><text x="416" y="432" font-size="11" fill="#5A6070">-50K</text><text x="536" y="432" font-size="11" fill="#5A6070">-80K</text><text x="656" y="432" font-size="11" font-weight="600" fill="#00843D">-100K</text><text x="232" y="454" font-size="11" fill="#1A1D23">HH</text><text x="416" y="454" font-size="11" fill="#5A6070">2,400</text><text x="536" y="454" font-size="11" fill="#5A6070">3,600</text><text x="656" y="454" font-size="11" font-weight="600" fill="#00843D">4,000</text><rect x="216" y="470" width="410" height="130" rx="10" fill="#FFFFFF" filter="url(#s)"/><text x="232" y="494" font-size="13" font-weight="600" fill="#1A1D23">Indicadores de impacto</text><text x="416" y="494" font-size="10" fill="#8B92A0">(de formularios)</text><text x="232" y="518" font-size="9" font-weight="600" fill="#8B92A0" letter-spacing="0.3">INDICADOR</text><text x="386" y="518" font-size="9" font-weight="600" fill="#8B92A0" letter-spacing="0.3">INICIO</text><text x="446" y="518" font-size="9" font-weight="600" fill="#8B92A0" letter-spacing="0.3">TARGET</text><text x="516" y="518" font-size="9" font-weight="600" fill="#8B92A0" letter-spacing="0.3">ACTUAL</text><text x="576" y="518" font-size="9" font-weight="600" fill="#8B92A0" letter-spacing="0.3">PRIO</text><line x1="232" y1="524" x2="616" y2="524" stroke="#E2E5EA"/><text x="232" y="542" font-size="10" fill="#1A1D23">Interv. no planif.</text><text x="386" y="542" font-size="10" fill="#5A6070">12/mes</text><text x="446" y="542" font-size="10" fill="#5A6070">4/mes</text><text x="516" y="542" font-size="10" fill="#8B92A0">—</text><text x="576" y="542" font-size="10" fill="#5A6070">Alta</text><text x="232" y="564" font-size="10" fill="#1A1D23">Costo mant.</text><text x="386" y="564" font-size="10" fill="#5A6070">2.1M</text><text x="446" y="564" font-size="10" fill="#5A6070">1.5M</text><text x="516" y="564" font-size="10" fill="#8B92A0">—</text><text x="576" y="564" font-size="10" fill="#5A6070">Media</text><text x="232" y="586" font-size="10" fill="#1A1D23">Disp. datos campo</text><text x="386" y="586" font-size="10" fill="#5A6070">40%</text><text x="446" y="586" font-size="10" fill="#5A6070">95%</text><text x="516" y="586" font-size="10" fill="#8B92A0">—</text><text x="576" y="586" font-size="10" fill="#5A6070">Media</text><text x="232" y="592" font-size="9" fill="#8B92A0">Col. "Actual" vacía en etapas 1-2, se llena en 3+</text><rect x="634" y="470" width="98" height="130" rx="10" fill="#FFFFFF" filter="url(#s)"/><text x="650" y="494" font-size="13" font-weight="600" fill="#1A1D23">Desafíos y riesgos</text><circle cx="658" cy="518" r="3" fill="#C8102E"/><text x="666" y="522" font-size="10" fill="#5A6070">Conectividad campo → edge computing</text><circle cx="658" cy="538" r="3" fill="#C8102E"/><text x="666" y="542" font-size="10" fill="#5A6070">Resistencia cambio → capacitación</text><circle cx="658" cy="558" r="3" fill="#C8102E"/><text x="666" y="562" font-size="10" fill="#5A6070">Calidad datos → limpieza</text><rect x="740" y="470" width="98" height="130" rx="10" fill="#FFFFFF" filter="url(#s)"/><text x="756" y="494" font-size="13" font-weight="600" fill="#1A1D23">Interdependencias</text><text x="756" y="518" font-size="10" font-weight="500" fill="#003DA5">Monitoreo remoto</text><text x="756" y="534" font-size="10" fill="#5A6070">Ref: datos de sensores</text><text x="756" y="558" font-size="10" font-weight="500" fill="#003DA5">ERP integración</text><text x="756" y="574" font-size="10" fill="#8B92A0">← esta col. solo en etapa Delivery</text><rect x="216" y="614" width="828" height="28" rx="6" fill="#003DA5" opacity="0.04"/><text x="232" y="632" font-size="11" font-weight="600" fill="#003DA5">▼ SECCIÓN ADICIONAL — SOLO VP Y ÁREA TRANSFORMACIÓN (en cualquier etapa)</text><rect x="216" y="650" width="828" height="120" rx="10" fill="#FFFFFF" filter="url(#s)"/><text x="232" y="674" font-size="13" font-weight="600" fill="#1A1D23">Objetivos Upstream vs iniciativas</text><text x="232" y="698" font-size="9" font-weight="600" fill="#8B92A0" letter-spacing="0.3">OBJETIVO</text><text x="466" y="698" font-size="9" font-weight="600" fill="#8B92A0" letter-spacing="0.3">INICIATIVA</text><text x="616" y="698" font-size="9" font-weight="600" fill="#8B92A0" letter-spacing="0.3">ETAPA</text><text x="696" y="698" font-size="9" font-weight="600" fill="#8B92A0" letter-spacing="0.3">ENTREGABLE CLAVE</text><line x1="232" y1="704" x2="1028" y2="704" stroke="#E2E5EA"/><text x="232" y="722" font-size="10" fill="#1A1D23">Aumentar producción (+15K m3)</text><text x="466" y="722" font-size="10" fill="#5A6070">Optim. pozo</text><rect x="616" y="708" width="46" height="22" rx="11" fill="#003DA5" opacity="0.08"/><text x="639" y="723" text-anchor="middle" font-size="10" font-weight="500" fill="#003DA5">Prop.</text><text x="696" y="722" font-size="10" fill="#5A6070">MVP predictivo Q3</text><text x="232" y="742" font-size="10" fill="#1A1D23"></text><text x="466" y="742" font-size="10" fill="#5A6070">Monitoreo remoto</text><rect x="616" y="728" width="40" height="22" rx="11" fill="#003DA5" opacity="0.08"/><text x="636" y="743" text-anchor="middle" font-size="10" font-weight="500" fill="#003DA5">Dim.</text><text x="696" y="742" font-size="10" fill="#5A6070">Sensores fase 1 Q2</text><text x="232" y="762" font-size="10" fill="#1A1D23">Reducir OPEX (-USD 5M)</text><text x="466" y="762" font-size="10" fill="#5A6070">Autom. bombeo</text><rect x="616" y="748" width="40" height="22" rx="11" fill="#003DA5" opacity="0.08"/><text x="636" y="763" text-anchor="middle" font-size="10" font-weight="500" fill="#003DA5">Dim.</text><text x="696" y="762" font-size="10" fill="#5A6070">Piloto 10 pozos Q2</text><rect x="216" y="778" width="410" height="80" rx="10" fill="#FFFFFF" filter="url(#s)"/><text x="232" y="800" font-size="12" font-weight="600" fill="#1A1D23">Corrientes cruzadas</text><text x="232" y="820" font-size="9" font-weight="600" fill="#8B92A0">CORRIENTE</text><text x="366" y="820" font-size="9" font-weight="600" fill="#8B92A0">TOTAL</text><text x="436" y="820" font-size="9" font-weight="600" fill="#8B92A0">INICIATIVAS</text><line x1="232" y1="826" x2="610" y2="826" stroke="#E2E5EA"/><text x="232" y="842" font-size="10" fill="#1A1D23">Producción</text><text x="366" y="842" font-size="10" font-weight="600" fill="#00843D">+22K m3</text><text x="436" y="842" font-size="10" fill="#5A6070">Optim.(+8K) Mon.(+6K) Aut.(+8K)</text><text x="232" y="858" font-size="10" fill="#1A1D23">OPEX</text><text x="366" y="858" font-size="10" font-weight="600" fill="#00843D">-5.2M</text><text x="436" y="858" font-size="10" fill="#5A6070">Aut.(-3.1M) Pred.(-1.4M)</text><rect x="634" y="778" width="410" height="80" rx="10" fill="#F7F8FA" stroke="#E2E5EA" stroke-dasharray="6,3"/><text x="650" y="804" font-size="13" font-weight="600" fill="#8B92A0">Vision House</text><text x="650" y="824" font-size="11" fill="#8B92A0">Post-MVP: objetivos estratégicos</text><text x="650" y="840" font-size="11" fill="#8B92A0">y focos del año vinculados a las iniciativas del portfolio.</text><rect x="216" y="872" width="828" height="60" rx="10" fill="#FFFFFF" filter="url(#s)"/><text x="232" y="892" font-size="13" font-weight="600" fill="#1A1D23">Próximos eventos</text><text x="232" y="912" font-size="11" fill="#5A6070">25 abr — Gate 1: Optim. pozo</text><text x="476" y="912" font-size="10" font-weight="600" fill="#C8102E">Tu voto</text><text x="576" y="912" font-size="11" fill="#5A6070">1 may — Sprint Rev: Monitoreo</text><text x="232" y="928" font-size="11" fill="#5A6070">8 may — Gate 2: Autom. bombeo</text><text x="476" y="928" font-size="10" font-weight="600" fill="#C8102E">Tu voto</text><text x="576" y="928" font-size="11" fill="#5A6070">15 may — LTP Plan: Predictivo</text></svg>