<svg viewBox="0 0 1060 520" xmlns="http://www.w3.org/2000/svg" role="img" aria-labelledby="svgtitle">
<title id="svgtitle">PAE Tab Formularios — F4 y F5 con ciclos anuales</title>
<desc></desc>
<defs>
  <style>@import url('https://fonts.googleapis.com/css2?family=Inter:wght@300;400;500;600;700&amp;display=swap');text,tspan{font-family:'Inter',-apple-system,sans-serif;}</style>
  <filter id="shadow-sm" x="-4%" y="-4%" width="108%" height="116%"><feDropShadow dx="0" dy="1" stdDeviation="2" flood-opacity="0.06" flood-color="#000"/></filter>
  <filter id="shadow-md" x="-4%" y="-4%" width="108%" height="120%"><feDropShadow dx="0" dy="2" stdDeviation="4" flood-opacity="0.08" flood-color="#000"/></filter>
</defs>
<rect width="1060" height="520" fill="#F7F8FA"/>
<rect x="0" y="0" width="1060" height="48" fill="#FFFFFF" filter="url(#shadow-sm)"/>
<line x1="0" y1="48" x2="1060" y2="48" stroke="#E2E5EA"/>
<g transform="translate(16,16)">
  <rect x="0" y="-2" width="4" height="16" rx="1" fill="#C8102E"/>
  <text x="8" y="11" font-size="13" font-weight="700" fill="#1A1D23" letter-spacing="-0.3">PAE</text>
  <text x="42" y="11" font-size="10" font-weight="400" fill="#5A6070" letter-spacing="0.2">Gestión de Portfolio</text>
</g>
<text x="200" y="30" font-size="12" font-weight="400" fill="#8B92A0">Propuesta</text>
<text x="290" y="30" font-size="12" font-weight="400" fill="#8B92A0">Dimensionamiento</text>
<text x="410" y="30" font-size="12" font-weight="400" fill="#8B92A0">MVP</text>
<text x="465" y="30" font-size="12" font-weight="400" fill="#8B92A0">Delivery</text>
<circle cx="990" cy="24" r="14" fill="transparent" stroke="#E2E5EA"/>
<text x="990" y="28" text-anchor="middle" font-size="13" fill="#5A6070">🔔</text>
<circle cx="996" cy="16" r="7" fill="#C8102E"/>
<text x="996" y="19.5" text-anchor="middle" font-size="8" font-weight="600" fill="#FFFFFF">3</text>
<circle cx="1032" cy="24" r="14" fill="#003DA5" opacity="0.12"/>
<text x="1032" y="28" text-anchor="middle" font-size="10" font-weight="600" fill="#003DA5">JG</text>
<rect x="0" y="48" width="200" height="472" fill="#FFFFFF"/>
<line x1="200" y1="48" x2="200" y2="520" stroke="#E2E5EA"/>
<rect x="16" y="72" width="168" height="36" rx="8" fill="#003DA5"/>
<text x="100" y="94" text-anchor="middle" font-size="12" font-weight="500" fill="#FFFFFF">+ Nueva propuesta</text>
<text x="16" y="130" font-size="10" font-weight="600" fill="#8B92A0" letter-spacing="0.8">NAVEGACIÓN</text>
<text x="24" y="158" font-size="13" font-weight="400" fill="#5A6070">Dashboards</text>
<rect x="8" y="176" width="184" height="32" rx="6" fill="#003DA5" opacity="0.06"/>
<rect x="4" y="182" width="3" height="20" rx="1.5" fill="#003DA5"/>
<text x="24" y="194" font-size="13" font-weight="600" fill="#003DA5">Mis iniciativas</text>
<text x="24" y="230" font-size="13" font-weight="400" fill="#5A6070">Gateways</text>
<rect x="16" y="268" width="168" height="32" rx="6" fill="#C8102E" opacity="0.06"/>
<text x="28" y="288" font-size="12" font-weight="500" fill="#C8102E">Aprob. pendientes</text>
<circle cx="170" cy="284" r="9" fill="#C8102E"/>
<text x="170" y="288" text-anchor="middle" font-size="9" font-weight="600" fill="#FFFFFF">2</text>
<text x="224" y="60" font-size="10" font-weight="600" fill="#00843D" letter-spacing="0.8">F4 VISIÓN LTP — SE COMPLETA MÚLTIPLES VECES (1 POR AÑO). ANTERIORES QUEDAN READ-ONLY.</text>
<rect x="216" y="80" width="828" height="180" rx="10" fill="#FFFFFF" filter="url(#shadow-sm)"/>
<text x="232" y="108" font-size="14" font-weight="600" fill="#1A1D23">F4 — Visión LTP (ciclos anuales)</text>

<text x="232" y="136" font-size="9" font-weight="600" fill="#8B92A0" letter-spacing="0.5">CICLO</text>
<text x="366" y="136" font-size="9" font-weight="600" fill="#8B92A0" letter-spacing="0.5">ESTADO</text>
<text x="516" y="136" font-size="9" font-weight="600" fill="#8B92A0" letter-spacing="0.5">FECHA</text>
<text x="666" y="136" font-size="9" font-weight="600" fill="#8B92A0" letter-spacing="0.5">ACCIÓN</text>
<line x1="232" y1="142" x2="1028" y2="142" stroke="#E2E5EA"/>
<text x="232" y="162" font-size="12" font-weight="500" fill="#1A1D23">LTP 2026</text>
<rect x="366" y="148" width="94" height="22" rx="11" fill="#00843D" opacity="0.08"/>
<text x="413" y="163" text-anchor="middle" font-size="10" font-weight="500" fill="#00843D">Versión final</text>
<text x="516" y="162" font-size="11" fill="#5A6070">15 jun 2026</text>
<text x="666" y="162" font-size="11" font-weight="500" fill="#003DA5">Ver read-only</text>
<text x="232" y="198" font-size="12" font-weight="500" fill="#1A1D23">LTP 2027</text>
<rect x="366" y="184" width="82" height="22" rx="11" fill="#003DA5" opacity="0.08"/>
<text x="407" y="199" text-anchor="middle" font-size="10" font-weight="500" fill="#003DA5">En borrador</text>
<text x="516" y="198" font-size="11" fill="#5A6070">—</text>
<text x="666" y="198" font-size="11" font-weight="500" fill="#003DA5">Editar →</text>
<text x="232" y="234" font-size="12" font-weight="500" fill="#1A1D23">LTP 2028</text>
<rect x="366" y="220" width="82" height="22" rx="11" fill="#8B92A0" opacity="0.08"/>
<text x="407" y="235" text-anchor="middle" font-size="10" font-weight="500" fill="#8B92A0">No iniciado</text>
<text x="516" y="234" font-size="11" fill="#5A6070">—</text>
<text x="666" y="234" font-size="11" font-weight="500" fill="#8B92A0">Requiere LTP 2027</text>
<rect x="216" y="276" width="828" height="140" rx="10" fill="#FFFFFF" filter="url(#shadow-sm)"/>
<text x="232" y="304" font-size="14" font-weight="600" fill="#1A1D23">F5 — Review LTP (ciclos anuales)</text>
<text x="232" y="332" font-size="9" font-weight="600" fill="#8B92A0" letter-spacing="0.5">CICLO</text>
<text x="366" y="332" font-size="9" font-weight="600" fill="#8B92A0" letter-spacing="0.5">ESTADO</text>
<text x="516" y="332" font-size="9" font-weight="600" fill="#8B92A0" letter-spacing="0.5">FECHA</text>
<text x="666" y="332" font-size="9" font-weight="600" fill="#8B92A0" letter-spacing="0.5">RESULTADO</text>
<line x1="232" y1="338" x2="1028" y2="338" stroke="#E2E5EA"/>
<text x="232" y="358" font-size="12" font-weight="500" fill="#1A1D23">Review 2026</text>
<rect x="366" y="344" width="64" height="22" rx="11" fill="#00843D" opacity="0.08"/>
<text x="398" y="359" text-anchor="middle" font-size="10" font-weight="500" fill="#00843D">Reviewed</text>
<text x="516" y="358" font-size="11" fill="#5A6070">20 dic 2026</text>
<text x="666" y="358" font-size="11" fill="#00843D">Plan vs real: 85% cumplimiento</text>
<text x="232" y="390" font-size="12" font-weight="500" fill="#1A1D23">Review 2027</text>
<rect x="366" y="376" width="82" height="22" rx="11" fill="#8B92A0" opacity="0.08"/>
<text x="407" y="391" text-anchor="middle" font-size="10" font-weight="500" fill="#8B92A0">No iniciado</text>
<text x="516" y="390" font-size="11" fill="#8B92A0">—</text>
<text x="666" y="390" font-size="11" fill="#8B92A0">Requiere F4 2027 completado</text>
</svg>