<svg viewBox="0 0 1060 1440" xmlns="http://www.w3.org/2000/svg"><title>PAE Detalle — Resumen COMPLETO Etapa 4 (Delivery)</title>
<defs><style>@import url('https://fonts.googleapis.com/css2?family=Inter:wght@300;400;500;600;700&amp;display=swap');text,tspan{font-family:'Inter',sans-serif;}</style>
<filter id="s" x="-4%" y="-4%" width="108%" height="116%"><feDropShadow dx="0" dy="1" stdDeviation="2" flood-opacity="0.06"/></filter></defs>
<rect width="1060" height="1440" fill="#F7F8FA"/><rect width="1060" height="48" fill="#FFFFFF" filter="url(#s)"/><line x1="0" y1="48" x2="1060" y2="48" stroke="#E2E5EA"/><g transform="translate(16,16)"><rect width="4" height="16" rx="1" fill="#C8102E" y="-2"/><text x="8" y="11" font-size="13" font-weight="700" fill="#1A1D23">PAE</text><text x="42" y="11" font-size="10" fill="#5A6070">Gestión de Portfolio</text></g><text x="200" y="30" font-size="12" fill="#8B92A0">Propuesta</text><text x="290" y="30" font-size="12" fill="#8B92A0">Dimensionamiento</text><text x="410" y="30" font-size="12" fill="#8B92A0">MVP</text><text x="465" y="30" font-size="12" fill="#8B92A0">Delivery</text><circle cx="990" cy="24" r="14" stroke="#E2E5EA" fill="none"/><text x="990" y="28" text-anchor="middle" font-size="13" fill="#5A6070">🔔</text><circle cx="996" cy="16" r="7" fill="#C8102E"/><text x="996" y="19" text-anchor="middle" font-size="8" font-weight="600" fill="#FFFFFF">2</text><circle cx="1032" cy="24" r="14" fill="#C8102E" opacity="0.12"/><text x="1032" y="28" text-anchor="middle" font-size="10" font-weight="600" fill="#C8102E">RM</text><rect x="0" y="48" width="200" height="1392" fill="#FFFFFF"/><line x1="200" y1="48" x2="200" y2="1440" stroke="#E2E5EA"/><rect x="16" y="72" width="168" height="36" rx="8" fill="#003DA5"/><text x="100" y="94" text-anchor="middle" font-size="12" font-weight="500" fill="#FFFFFF">+ Nueva propuesta</text><text x="24" y="122" font-size="12" fill="#5A6070">Subir documento</text><text x="24" y="146" font-size="12" font-weight="500" fill="#C8102E">Aprob. pend. 2</text><text x="16" y="172" font-size="10" font-weight="600" fill="#8B92A0" letter-spacing="0.8">NAVEGACIÓN</text><text x="24" y="200" font-size="13" fill="#5A6070">Dashboards</text><rect x="8" y="218" width="184" height="32" rx="6" fill="#003DA5" opacity="0.06"/><text x="24" y="236" font-size="13" font-weight="600" fill="#003DA5">Mis iniciativas</text><text x="24" y="272" font-size="13" fill="#5A6070">Gateways</text><text x="224" y="72" font-size="11" fill="#5A6070">Mis iniciativas  ›  <tspan font-weight="500" fill="#1A1D23">Optimización de pozo</tspan></text><text x="224" y="98" font-size="20" font-weight="600" fill="#1A1D23">Optimización de pozo</text><rect x="476" y="82" width="64" height="22" rx="11" fill="#00843D" opacity="0.08"/><text x="508" y="97" text-anchor="middle" font-size="10" font-weight="500" fill="#00843D">Delivery</text><rect x="548" y="82" width="82" height="22" rx="11" fill="#00843D" opacity="0.08"/><text x="589" y="97" text-anchor="middle" font-size="10" font-weight="500" fill="#00843D">En progreso</text><text x="224" y="118" font-size="11" fill="#5A6070">Dim: Producción | PO: J. García | BO: A. Torres | Sponsor: R. Méndez</text><rect x="884" y="82" width="70" height="30" rx="6" fill="#C8102E" opacity="0.06"/><text x="919" y="102" text-anchor="middle" font-size="11" font-weight="600" fill="#C8102E">PPTX</text><rect x="962" y="82" width="80" height="30" rx="6" fill="#F7F8FA" stroke="#E2E5EA"/><text x="1002" y="102" text-anchor="middle" font-size="10" fill="#5A6070">Nota prensa</text><rect x="216" y="130" width="828" height="36" fill="#FFFFFF"/><line x1="216" y1="165" x2="1044" y2="165" stroke="#E2E5EA"/><text x="232" y="154" font-size="12" font-weight="600" fill="#003DA5">Resumen</text><rect x="232" y="162" width="49" height="3" rx="1.5" fill="#003DA5"/><text x="301" y="154" font-size="12" fill="#5A6070">Eventos</text><text x="370" y="154" font-size="12" fill="#5A6070">Formularios</text><text x="467" y="154" font-size="12" fill="#5A6070">Documentos</text><text x="557" y="154" font-size="12" fill="#5A6070">Equipo</text><text x="619" y="154" font-size="12" fill="#5A6070">Mesa de trabajo</text><rect x="216" y="178" width="828" height="48" rx="10" fill="#FFFFFF" filter="url(#s)"/><text x="232" y="198" font-size="13" font-weight="600" fill="#1A1D23">Propósito</text><text x="232" y="216" font-size="11" fill="#5A6070">Para ingenieros de producción que necesitan optimizar el rendimiento de pozos maduros...</text><rect x="216" y="238" width="201" height="64" rx="10" fill="#FFFFFF" filter="url(#s)"/><text x="228" y="260" font-size="9" font-weight="600" fill="#8B92A0" letter-spacing="0.5">VALOR ESPERADO</text><text x="228" y="286" font-size="18" font-weight="700" fill="#1A1D23">USD 1.2M</text><rect x="425" y="238" width="201" height="64" rx="10" fill="#FFFFFF" filter="url(#s)"/><text x="437" y="260" font-size="9" font-weight="600" fill="#8B92A0" letter-spacing="0.5">GASTO ESPERADO</text><text x="437" y="286" font-size="18" font-weight="700" fill="#1A1D23">USD 180K</text><rect x="634" y="238" width="201" height="64" rx="10" fill="#FFFFFF" filter="url(#s)"/><text x="646" y="260" font-size="9" font-weight="600" fill="#8B92A0" letter-spacing="0.5">ROI</text><text x="646" y="286" font-size="18" font-weight="700" fill="#1A1D23">6.7x</text><rect x="843" y="238" width="201" height="64" rx="10" fill="#FFFFFF" filter="url(#s)"/><text x="855" y="260" font-size="9" font-weight="600" fill="#8B92A0" letter-spacing="0.5">HH OPTIMIZADAS</text><text x="855" y="286" font-size="18" font-weight="700" fill="#1A1D23">2,400</text><rect x="216" y="316" width="828" height="140" rx="10" fill="#FFFFFF" filter="url(#s)"/><text x="232" y="340" font-size="13" font-weight="600" fill="#1A1D23">Corrientes de valor — 5 años</text><text x="232" y="364" font-size="9" font-weight="600" fill="#8B92A0" letter-spacing="0.5">CORRIENTE</text><text x="416" y="364" font-size="9" font-weight="600" fill="#8B92A0" letter-spacing="0.5">AÑO 1</text><text x="536" y="364" font-size="9" font-weight="600" fill="#8B92A0" letter-spacing="0.5">AÑO 3</text><text x="656" y="364" font-size="9" font-weight="600" fill="#8B92A0" letter-spacing="0.5">AÑO 5</text><line x1="232" y1="370" x2="1028" y2="370" stroke="#E2E5EA"/><text x="232" y="388" font-size="11" fill="#1A1D23">Producción</text><text x="416" y="388" font-size="11" fill="#5A6070">+8K</text><text x="536" y="388" font-size="11" fill="#5A6070">+15K</text><text x="656" y="388" font-size="11" font-weight="600" fill="#00843D">+22K</text><text x="232" y="410" font-size="11" fill="#1A1D23">OPEX (USD)</text><text x="416" y="410" font-size="11" fill="#5A6070">-120K</text><text x="536" y="410" font-size="11" fill="#5A6070">-280K</text><text x="656" y="410" font-size="11" font-weight="600" fill="#00843D">-350K</text><text x="232" y="432" font-size="11" fill="#1A1D23">CAPEX (USD)</text><text x="416" y="432" font-size="11" fill="#5A6070">-50K</text><text x="536" y="432" font-size="11" fill="#5A6070">-80K</text><text x="656" y="432" font-size="11" font-weight="600" fill="#00843D">-100K</text><text x="232" y="454" font-size="11" fill="#1A1D23">HH</text><text x="416" y="454" font-size="11" fill="#5A6070">2,400</text><text x="536" y="454" font-size="11" fill="#5A6070">3,600</text><text x="656" y="454" font-size="11" font-weight="600" fill="#00843D">4,000</text><rect x="216" y="470" width="410" height="130" rx="10" fill="#FFFFFF" filter="url(#s)"/><text x="232" y="494" font-size="13" font-weight="600" fill="#1A1D23">Indicadores de impacto</text><text x="232" y="518" font-size="9" font-weight="600" fill="#8B92A0" letter-spacing="0.3">INDICADOR</text><text x="386" y="518" font-size="9" font-weight="600" fill="#8B92A0" letter-spacing="0.3">INICIO</text><text x="446" y="518" font-size="9" font-weight="600" fill="#8B92A0" letter-spacing="0.3">TARGET</text><text x="516" y="518" font-size="9" font-weight="600" fill="#8B92A0" letter-spacing="0.3">ACTUAL</text><text x="576" y="518" font-size="9" font-weight="600" fill="#8B92A0" letter-spacing="0.3">PRIO</text><line x1="232" y1="524" x2="616" y2="524" stroke="#E2E5EA"/><text x="232" y="542" font-size="10" fill="#1A1D23">Interv. no planif.</text><text x="386" y="542" font-size="10" fill="#5A6070">12/mes</text><text x="446" y="542" font-size="10" fill="#5A6070">4/mes</text><text x="516" y="542" font-size="10" font-weight="600" fill="#00843D">6/mes</text><text x="576" y="542" font-size="10" fill="#5A6070">Alta</text><text x="232" y="564" font-size="10" fill="#1A1D23">Costo mant.</text><text x="386" y="564" font-size="10" fill="#5A6070">2.1M</text><text x="446" y="564" font-size="10" fill="#5A6070">1.5M</text><text x="516" y="564" font-size="10" font-weight="600" fill="#00843D">1.8M</text><text x="576" y="564" font-size="10" fill="#5A6070">Media</text><text x="232" y="586" font-size="10" fill="#1A1D23">Disp. datos campo</text><text x="386" y="586" font-size="10" fill="#5A6070">40%</text><text x="446" y="586" font-size="10" fill="#5A6070">95%</text><text x="516" y="586" font-size="10" font-weight="600" fill="#00843D">78%</text><text x="576" y="586" font-size="10" fill="#5A6070">Media</text><text x="232" y="592" font-size="9" fill="#8B92A0">En Delivery, col. "Actual" se llena</text><rect x="634" y="470" width="98" height="130" rx="10" fill="#FFFFFF" filter="url(#s)"/><text x="650" y="494" font-size="13" font-weight="600" fill="#1A1D23">Desafíos y riesgos</text><circle cx="658" cy="518" r="3" fill="#C8102E"/><text x="666" y="522" font-size="10" fill="#5A6070">Conectividad campo → edge computing</text><circle cx="658" cy="538" r="3" fill="#C8102E"/><text x="666" y="542" font-size="10" fill="#5A6070">Resistencia cambio → capacitación</text><circle cx="658" cy="558" r="3" fill="#C8102E"/><text x="666" y="562" font-size="10" fill="#5A6070">Calidad datos → limpieza</text><rect x="740" y="470" width="98" height="130" rx="10" fill="#FFFFFF" filter="url(#s)"/><text x="756" y="494" font-size="13" font-weight="600" fill="#1A1D23">Interdependencias</text><text x="756" y="518" font-size="10" font-weight="500" fill="#003DA5">Monitoreo remoto</text><text x="756" y="534" font-size="10" fill="#5A6070">Ref: datos de sensores</text><text x="756" y="558" font-size="10" font-weight="500" fill="#003DA5">ERP integración</text><text x="756" y="574" font-size="10" fill="#5A6070">Ref: API datos maestros</text><rect x="216" y="614" width="828" height="28" rx="6" fill="#00843D" opacity="0.04"/><text x="232" y="632" font-size="11" font-weight="600" fill="#00843D">▼ BLOQUES ADICIONALES — ETAPA DELIVERY (F3 completo o F4 existe)</text><rect x="216" y="650" width="828" height="170" rx="10" fill="#FFFFFF" filter="url(#s)"/><text x="232" y="674" font-size="13" font-weight="600" fill="#1A1D23">Entregables priorizados</text><text x="416" y="674" font-size="10" fill="#8B92A0">(de F4/F5)</text><text x="232" y="698" font-size="9" font-weight="600" fill="#8B92A0" letter-spacing="0.3">ENTREGABLE</text><text x="516" y="698" font-size="9" font-weight="600" fill="#8B92A0" letter-spacing="0.3">RESP.</text><text x="616" y="698" font-size="9" font-weight="600" fill="#8B92A0" letter-spacing="0.3">ESTADO</text><text x="736" y="698" font-size="9" font-weight="600" fill="#8B92A0" letter-spacing="0.3">AVANCE</text><line x1="232" y1="704" x2="1028" y2="704" stroke="#E2E5EA"/><text x="232" y="722" font-size="10" fill="#1A1D23">Digitalización datos de origen</text><text x="516" y="722" font-size="10" fill="#5A6070">J. García</text><text x="616" y="722" font-size="10" fill="#00843D">Q1 · En curso</text><text x="736" y="722" font-size="10" font-weight="600" fill="#00843D">60%</text><text x="232" y="740" font-size="10" fill="#1A1D23">Prueba piloto modelo diagnóstico</text><text x="516" y="740" font-size="10" fill="#5A6070">M. López</text><text x="616" y="740" font-size="10" fill="#8B92A0">Q1 · Planificado</text><text x="736" y="740" font-size="10" font-weight="600" fill="#8B92A0">—</text><text x="232" y="758" font-size="10" fill="#1A1D23">Motor priorización técnico-económico</text><text x="516" y="758" font-size="10" fill="#5A6070">P. Díaz</text><text x="616" y="758" font-size="10" fill="#8B92A0">Q2 · Planificado</text><text x="736" y="758" font-size="10" font-weight="600" fill="#8B92A0">—</text><text x="232" y="776" font-size="10" fill="#1A1D23">Validación reglas usuario y calidad</text><text x="516" y="776" font-size="10" fill="#5A6070">L. Martínez</text><text x="616" y="776" font-size="10" fill="#8B92A0">Q2 · Planificado</text><text x="736" y="776" font-size="10" font-weight="600" fill="#8B92A0">—</text><text x="232" y="794" font-size="10" fill="#1A1D23">Automatización ejecución alertas</text><text x="516" y="794" font-size="10" fill="#5A6070">S. Romero</text><text x="616" y="794" font-size="10" fill="#8B92A0">Q3 · Planificado</text><text x="736" y="794" font-size="10" font-weight="600" fill="#8B92A0">—</text><text x="232" y="814" font-size="10" font-weight="500" fill="#003DA5">+ más entregables...</text><rect x="216" y="834" width="828" height="130" rx="10" fill="#FFFFFF" filter="url(#s)"/><text x="232" y="858" font-size="13" font-weight="600" fill="#1A1D23">Indicadores adopción / asertividad</text><text x="232" y="882" font-size="9" font-weight="600" fill="#8B92A0" letter-spacing="0.3">INDICADOR</text><text x="406" y="882" font-size="9" font-weight="600" fill="#8B92A0" letter-spacing="0.3">TIPO</text><text x="486" y="882" font-size="9" font-weight="600" fill="#8B92A0" letter-spacing="0.3">INICIO</text><text x="556" y="882" font-size="9" font-weight="600" fill="#8B92A0" letter-spacing="0.3">TARGET</text><text x="636" y="882" font-size="9" font-weight="600" fill="#8B92A0" letter-spacing="0.3">ACTUAL</text><text x="716" y="882" font-size="9" font-weight="600" fill="#8B92A0" letter-spacing="0.3">TREND</text><line x1="232" y1="888" x2="1028" y2="888" stroke="#E2E5EA"/><text x="232" y="906" font-size="10" fill="#1A1D23">Prod. incr. (m3)</text><text x="406" y="906" font-size="10" fill="#5A6070">Resultado</text><text x="486" y="906" font-size="10" fill="#5A6070">+8K</text><text x="556" y="906" font-size="10" fill="#5A6070">+15K</text><text x="636" y="906" font-size="10" font-weight="600" fill="#00843D">+11.2K</text><text x="716" y="906" font-size="10" fill="#00843D">↑</text><text x="232" y="924" font-size="10" fill="#1A1D23">Usuarios activos</text><text x="406" y="924" font-size="10" fill="#5A6070">Adopción</text><text x="486" y="924" font-size="10" fill="#5A6070">15</text><text x="556" y="924" font-size="10" fill="#5A6070">40</text><text x="636" y="924" font-size="10" font-weight="600" fill="#00843D">28</text><text x="716" y="924" font-size="10" fill="#00843D">↑</text><text x="232" y="942" font-size="10" fill="#1A1D23">Precisión modelo</text><text x="406" y="942" font-size="10" fill="#5A6070">Asertiv.</text><text x="486" y="942" font-size="10" fill="#5A6070">72%</text><text x="556" y="942" font-size="10" fill="#5A6070">90%</text><text x="636" y="942" font-size="10" font-weight="600" fill="#00843D">78%</text><text x="716" y="942" font-size="10" fill="#00843D">↑</text><text x="232" y="960" font-size="10" fill="#1A1D23">Reducción interv.</text><text x="406" y="960" font-size="10" fill="#5A6070">Impacto</text><text x="486" y="960" font-size="10" fill="#5A6070">12/mes</text><text x="556" y="960" font-size="10" fill="#5A6070">4/mes</text><text x="636" y="960" font-size="10" font-weight="600" fill="#00843D">6/mes</text><text x="716" y="960" font-size="10" fill="#00843D">↑</text><rect x="216" y="978" width="410" height="80" rx="10" fill="#FFFFFF" filter="url(#s)"/><text x="232" y="1000" font-size="13" font-weight="600" fill="#1A1D23">Presupuesto del año</text><text x="232" y="1022" font-size="10" font-weight="600" fill="#8B92A0">EROGACIONES OPEX</text><text x="356" y="1022" font-size="10" fill="#5A6070">Consultoría USD 45K | Licencias USD 12K | Infraestructura USD 8K</text><text x="232" y="1042" font-size="10" font-weight="600" fill="#8B92A0">EROGACIONES CAPEX</text><text x="366" y="1042" font-size="10" fill="#5A6070">Desarrollo USD 115K</text><rect x="634" y="978" width="410" height="28" rx="6" fill="#003DA5" opacity="0.04"/><text x="650" y="996" font-size="11" font-weight="600" fill="#003DA5">▼ SOLO VP Y ÁREA TRANSFORMACIÓN</text><rect x="634" y="1014" width="410" height="44" rx="10" fill="#FFFFFF" filter="url(#s)"/><text x="650" y="1032" font-size="10" fill="#5A6070">Optim(Del.) Mon(Dim.) Autom(Dim.) Gest.integ.(MVP)</text><text x="650" y="1050" font-size="10" fill="#5A6070">Corrientes: Prod +22K | OPEX -5.2M | HH 9,500</text><rect x="216" y="1072" width="410" height="60" rx="10" fill="#FFFFFF" filter="url(#s)"/><text x="232" y="1094" font-size="12" font-weight="600" fill="#1A1D23">Corrientes cruzadas</text><text x="232" y="1114" font-size="10" fill="#5A6070">Producción +22K m3 | OPEX -5.2M | HH 9,500 hh</text><rect x="634" y="1072" width="410" height="60" rx="10" fill="#F7F8FA" stroke="#E2E5EA" stroke-dasharray="6,3"/><text x="650" y="1094" font-size="13" font-weight="600" fill="#8B92A0">Vision House</text><text x="650" y="1114" font-size="11" fill="#8B92A0">Post-MVP: objetivos estratégicos y focos del año vinculados.</text><rect x="216" y="1146" width="828" height="56" rx="10" fill="#FFFFFF" filter="url(#s)"/><text x="232" y="1166" font-size="13" font-weight="600" fill="#1A1D23">Próximos eventos</text><text x="416" y="1166" font-size="11" font-weight="500" fill="#003DA5">+ Agregar evento</text><text x="232" y="1186" font-size="11" fill="#5A6070">25 abr — Gate 1: Optim. pozo</text><text x="456" y="1186" font-size="10" font-weight="600" fill="#C8102E">Tu voto</text><text x="556" y="1186" font-size="11" fill="#5A6070">1 may — Sprint Rev: Monitoreo</text><text x="232" y="1200" font-size="11" fill="#5A6070">8 may — Gate 2: Autom.</text><text x="396" y="1200" font-size="10" font-weight="600" fill="#C8102E">Tu voto</text><text x="556" y="1200" font-size="11" fill="#5A6070">15 may — LTP Plan: Predictivo</text></svg>