<svg viewBox="0 0 1060 920" xmlns="http://www.w3.org/2000/svg" role="img">
<title>PAE Dashboard — Área Transformación</title><desc></desc>
<defs><style>@import url('https://fonts.googleapis.com/css2?family=Inter:wght@300;400;500;600;700&amp;display=swap');text,tspan{font-family:'Inter',sans-serif;}</style>
<filter id="s" x="-4%" y="-4%" width="108%" height="116%"><feDropShadow dx="0" dy="1" stdDeviation="2" flood-opacity="0.06"/></filter>
<filter id="m" x="-4%" y="-4%" width="108%" height="120%"><feDropShadow dx="0" dy="2" stdDeviation="4" flood-opacity="0.08"/></filter></defs>
<rect width="1060" height="920" fill="#F7F8FA"/>
<rect width="1060" height="48" fill="#FFFFFF" filter="url(#s)"/><line x1="0" y1="48" x2="1060" y2="48" stroke="#E2E5EA"/><g transform="translate(16,16)"><rect width="4" height="16" rx="1" fill="#C8102E" y="-2"/><text x="8" y="11" font-size="13" font-weight="700" fill="#1A1D23">PAE</text><text x="42" y="11" font-size="10" fill="#5A6070">Gestión de Portfolio</text></g><text x="200" y="30" font-size="12" fill="#8B92A0">Propuesta</text><text x="290" y="30" font-size="12" fill="#8B92A0">Dimensionamiento</text><text x="410" y="30" font-size="12" fill="#8B92A0">MVP</text><text x="465" y="30" font-size="12" fill="#8B92A0">Delivery</text><circle cx="990" cy="24" r="14" stroke="#E2E5EA" fill="none"/><text x="990" y="28" text-anchor="middle" font-size="13" fill="#5A6070">🔔</text><circle cx="996" cy="16" r="7" fill="#C8102E"/><text x="996" y="19" text-anchor="middle" font-size="8" font-weight="600" fill="#FFFFFF">5</text><circle cx="1032" cy="24" r="14" fill="#C8102E" opacity="0.12"/><text x="1032" y="28" text-anchor="middle" font-size="10" font-weight="600" fill="#C8102E">CR</text><rect x="0" y="48" width="200" height="872" fill="#FFFFFF"/><line x1="200" y1="48" x2="200" y2="920" stroke="#E2E5EA"/><rect x="16" y="72" width="168" height="36" rx="8" fill="#003DA5"/><text x="100" y="94" text-anchor="middle" font-size="12" font-weight="500" fill="#FFFFFF">+ Nueva propuesta</text><text x="24" y="122" font-size="12" fill="#5A6070">Subir documento</text><text x="24" y="146" font-size="12" font-weight="500" fill="#C8102E">Aprob. pend. 2</text><text x="16" y="176" font-size="10" font-weight="600" fill="#8B92A0" letter-spacing="0.8">NAVEGACIÓN</text><rect x="8" y="186" width="184" height="32" rx="6" fill="#003DA5" opacity="0.06"/><rect x="4" y="192" width="3" height="20" rx="1.5" fill="#003DA5"/><text x="24" y="204" font-size="13" font-weight="600" fill="#003DA5">Dashboards</text><text x="24" y="240" font-size="13" fill="#5A6070">Mis iniciativas</text><text x="24" y="276" font-size="13" fill="#5A6070">Gateways</text><text x="16" y="314" font-size="10" font-weight="600" fill="#8B92A0" letter-spacing="0.8">ESTADO</text><rect x="16" y="330" width="87.5" height="22" rx="11" fill="#00843D" opacity="0.08"/><text x="59.0" y="345" text-anchor="middle" font-size="10" fill="#00843D">En progreso</text><rect x="109.5" y="330" width="74.5" height="22" rx="11" fill="#C8102E" opacity="0.08"/><text x="146.5" y="345" text-anchor="middle" font-size="10" fill="#C8102E">Pendiente</text><rect x="16" y="358" width="61.5" height="22" rx="11" fill="#8B92A0" opacity="0.08"/><text x="46.0" y="373" text-anchor="middle" font-size="10" fill="#8B92A0">Pausada</text><rect x="83.5" y="358" width="74.5" height="22" rx="11" fill="#8B92A0" opacity="0.08"/><text x="120.5" y="373" text-anchor="middle" font-size="10" fill="#8B92A0">Rechazada</text><rect x="16" y="386" width="87.5" height="22" rx="11" fill="#8B92A0" opacity="0.08"/><text x="59.0" y="401" text-anchor="middle" font-size="10" fill="#8B92A0">Cambio área</text><text x="224" y="82" font-size="18" font-weight="600" fill="#1A1D23">Dashboards — Área Transformación (15 inic.)</text><text x="904" y="82" font-size="12" fill="#5A6070">Filtro VP: ▼ Todas</text><text x="994" y="82" font-size="11" font-weight="500" fill="#C8102E">Descargar PPTX</text><rect x="216" y="96" width="201" height="68" rx="10" fill="#FFFFFF" filter="url(#s)"/><rect x="216" y="96" width="201" height="4" rx="2" fill="#003DA5"/><text x="228" y="120" font-size="9" font-weight="600" fill="#8B92A0" letter-spacing="0.5">INICIATIVAS</text><text x="228" y="148" font-size="20" font-weight="700" fill="#1A1D23">15</text><rect x="425" y="96" width="201" height="68" rx="10" fill="#FFFFFF" filter="url(#s)"/><rect x="425" y="96" width="201" height="4" rx="2" fill="#00843D"/><text x="437" y="120" font-size="9" font-weight="600" fill="#8B92A0" letter-spacing="0.5">VALOR TOTAL</text><text x="437" y="148" font-size="20" font-weight="700" fill="#1A1D23">USD 18.2M</text><rect x="634" y="96" width="201" height="68" rx="10" fill="#FFFFFF" filter="url(#s)"/><rect x="634" y="96" width="201" height="4" rx="2" fill="#5A6070"/><text x="646" y="120" font-size="9" font-weight="600" fill="#8B92A0" letter-spacing="0.5">GASTO TOTAL</text><text x="646" y="148" font-size="20" font-weight="700" fill="#1A1D23">USD 2.8M</text><rect x="843" y="96" width="201" height="68" rx="10" fill="#FFFFFF" filter="url(#s)"/><rect x="843" y="96" width="201" height="4" rx="2" fill="#C8102E"/><text x="855" y="120" font-size="9" font-weight="600" fill="#8B92A0" letter-spacing="0.5">GATES PEND.</text><text x="855" y="148" font-size="20" font-weight="700" fill="#1A1D23">3</text><rect x="216" y="178" width="410" height="180" rx="10" fill="#FFFFFF" filter="url(#s)"/><text x="232" y="206" font-size="14" font-weight="600" fill="#1A1D23">Distribución por etapa</text><rect x="246" y="252" width="50" height="96" rx="4" fill="#003DA5" opacity="0.6"/><text x="271" y="256" text-anchor="middle" font-size="11" font-weight="600" fill="#1A1D23">4</text><text x="271" y="362" text-anchor="middle" font-size="9" fill="#5A6070">Propuesta</text><rect x="336" y="276" width="50" height="72" rx="4" fill="#003DA5" opacity="0.6"/><text x="361" y="280" text-anchor="middle" font-size="11" font-weight="600" fill="#1A1D23">3</text><text x="361" y="362" text-anchor="middle" font-size="9" fill="#5A6070">Dim.</text><rect x="426" y="252" width="50" height="96" rx="4" fill="#00843D" opacity="0.6"/><text x="451" y="256" text-anchor="middle" font-size="11" font-weight="600" fill="#1A1D23">4</text><text x="451" y="362" text-anchor="middle" font-size="9" fill="#5A6070">MVP</text><rect x="516" y="252" width="50" height="96" rx="4" fill="#00843D" opacity="0.6"/><text x="541" y="256" text-anchor="middle" font-size="11" font-weight="600" fill="#1A1D23">4</text><text x="541" y="362" text-anchor="middle" font-size="9" fill="#5A6070">Delivery</text><text x="232" y="356" font-size="10" fill="#8B92A0">Pausadas: 2 | Rechazadas: 1</text><rect x="634" y="178" width="410" height="180" rx="10" fill="#FFFFFF" filter="url(#s)"/><text x="650" y="206" font-size="14" font-weight="600" fill="#1A1D23">Corrientes de valor — beneficio bruto</text><text x="650" y="224" font-size="11" fill="#5A6070">Proyección año 1 consolidada</text><rect x="660" y="249" width="40" height="99" rx="4" fill="#00843D" opacity="0.5"/><text x="680" y="253" text-anchor="middle" font-size="10" font-weight="600" fill="#1A1D23">12.4M</text><text x="680" y="362" text-anchor="middle" font-size="9" fill="#5A6070">Prod</text><rect x="740" y="284" width="40" height="64" rx="4" fill="#003DA5" opacity="0.5"/><text x="760" y="288" text-anchor="middle" font-size="10" font-weight="600" fill="#1A1D23">8.1M</text><text x="760" y="362" text-anchor="middle" font-size="9" fill="#5A6070">OPEX</text><rect x="820" y="314" width="40" height="34" rx="4" fill="#003DA5" opacity="0.5"/><text x="840" y="318" text-anchor="middle" font-size="10" font-weight="600" fill="#1A1D23">4.3M</text><text x="840" y="362" text-anchor="middle" font-size="9" fill="#5A6070">CAPEX</text><rect x="900" y="328" width="40" height="20" rx="4" fill="#5A6070" opacity="0.5"/><text x="920" y="332" text-anchor="middle" font-size="10" font-weight="600" fill="#1A1D23">18K</text><text x="920" y="362" text-anchor="middle" font-size="9" fill="#5A6070">HH</text><rect x="216" y="372" width="828" height="200" rx="10" fill="#FFFFFF" filter="url(#s)"/><text x="232" y="400" font-size="14" font-weight="600" fill="#1A1D23">Ranking iniciativas — valor vs gasto</text><text x="924" y="400" font-size="11" fill="#5A6070">Ordenar: ▼ ROI</text><text x="232" y="424" font-size="9" font-weight="600" fill="#8B92A0" letter-spacing="0.5">INICIATIVA</text><text x="456" y="424" font-size="9" font-weight="600" fill="#8B92A0" letter-spacing="0.5">ETAPA</text><text x="556" y="424" font-size="9" font-weight="600" fill="#8B92A0" letter-spacing="0.5">VALOR ESP. ↕</text><text x="676" y="424" font-size="9" font-weight="600" fill="#8B92A0" letter-spacing="0.5">GASTO ESP. ↕</text><text x="776" y="424" font-size="9" font-weight="600" fill="#8B92A0" letter-spacing="0.5">ROI ↕</text><text x="856" y="424" font-size="9" font-weight="600" fill="#8B92A0" letter-spacing="0.5">ESTADO</text><line x1="232" y1="430" x2="1028" y2="430" stroke="#E2E5EA"/><text x="232" y="452" font-size="11" fill="#1A1D23">Gestión de integridad</text><rect x="456" y="438" width="34" height="22" rx="11" fill="#00843D" opacity="0.08"/><text x="473" y="453" text-anchor="middle" font-size="10" font-weight="500" fill="#00843D">MVP</text><text x="556" y="452" font-size="11" fill="#1A1D23">USD 950K</text><text x="676" y="452" font-size="11" fill="#5A6070">USD 95K</text><text x="776" y="452" font-size="11" font-weight="600" fill="#00843D">10.0x</text><rect x="856" y="438" width="28" height="22" rx="11" fill="#00843D" opacity="0.08"/><text x="870" y="453" text-anchor="middle" font-size="10" font-weight="500" fill="#00843D">OK</text><text x="232" y="490" font-size="11" fill="#1A1D23">Monitoreo remoto</text><rect x="456" y="476" width="40" height="22" rx="11" fill="#003DA5" opacity="0.08"/><text x="476" y="491" text-anchor="middle" font-size="10" font-weight="500" fill="#003DA5">Dim.</text><text x="556" y="490" font-size="11" fill="#1A1D23">USD 3.5M</text><text x="676" y="490" font-size="11" fill="#5A6070">USD 420K</text><text x="776" y="490" font-size="11" font-weight="600" fill="#00843D">8.3x</text><rect x="856" y="476" width="40" height="22" rx="11" fill="#C8102E" opacity="0.08"/><text x="876" y="491" text-anchor="middle" font-size="10" font-weight="500" fill="#C8102E">Gate</text><text x="232" y="528" font-size="11" fill="#1A1D23">Optimización de pozo</text><rect x="456" y="514" width="46" height="22" rx="11" fill="#003DA5" opacity="0.08"/><text x="479" y="529" text-anchor="middle" font-size="10" font-weight="500" fill="#003DA5">Prop.</text><text x="556" y="528" font-size="11" fill="#1A1D23">USD 1.2M</text><text x="676" y="528" font-size="11" fill="#5A6070">USD 180K</text><text x="776" y="528" font-size="11" font-weight="600" fill="#00843D">6.7x</text><rect x="856" y="514" width="28" height="22" rx="11" fill="#00843D" opacity="0.08"/><text x="870" y="529" text-anchor="middle" font-size="10" font-weight="500" fill="#00843D">OK</text><text x="232" y="566" font-size="11" fill="#1A1D23">Automatización bombeo</text><rect x="456" y="552" width="40" height="22" rx="11" fill="#003DA5" opacity="0.08"/><text x="476" y="567" text-anchor="middle" font-size="10" font-weight="500" fill="#003DA5">Dim.</text><text x="556" y="566" font-size="11" fill="#1A1D23">USD 5.2M</text><text x="676" y="566" font-size="11" fill="#5A6070">USD 620K</text><text x="776" y="566" font-size="11" font-weight="600" fill="#00843D">3.9x</text><rect x="856" y="552" width="28" height="22" rx="11" fill="#00843D" opacity="0.08"/><text x="870" y="567" text-anchor="middle" font-size="10" font-weight="500" fill="#00843D">OK</text><rect x="216" y="586" width="828" height="100" rx="10" fill="#FFFFFF" filter="url(#s)"/><text x="232" y="614" font-size="14" font-weight="600" fill="#1A1D23">Próximos eventos — abril / mayo 2026</text><circle cx="256" cy="638" r="6" fill="#C8102E"/><text x="256" y="658" text-anchor="middle" font-size="10" font-weight="500" fill="#1A1D23">Gate 1</text><text x="256" y="670" text-anchor="middle" font-size="9" fill="#5A6070">Optim. pozo</text><text x="256" y="682" text-anchor="middle" font-size="9" fill="#8B92A0">14 abr</text><circle cx="421" cy="638" r="6" fill="#003DA5"/><text x="421" y="658" text-anchor="middle" font-size="10" font-weight="500" fill="#1A1D23">Sprint Rev</text><text x="421" y="670" text-anchor="middle" font-size="9" fill="#5A6070">Monitoreo</text><text x="421" y="682" text-anchor="middle" font-size="9" fill="#8B92A0">21 abr</text><circle cx="586" cy="638" r="6" fill="#C8102E"/><text x="586" y="658" text-anchor="middle" font-size="10" font-weight="500" fill="#1A1D23">Gate 2</text><text x="586" y="670" text-anchor="middle" font-size="9" fill="#5A6070">Autom. bombeo</text><text x="586" y="682" text-anchor="middle" font-size="9" fill="#8B92A0">28 abr</text><circle cx="751" cy="638" r="6" fill="#00843D"/><text x="751" y="658" text-anchor="middle" font-size="10" font-weight="500" fill="#1A1D23">LTP Plan</text><text x="751" y="670" text-anchor="middle" font-size="9" fill="#5A6070">ERP integr.</text><text x="751" y="682" text-anchor="middle" font-size="9" fill="#8B92A0">5 may</text><circle cx="916" cy="638" r="6" fill="#003DA5"/><text x="916" y="658" text-anchor="middle" font-size="10" font-weight="500" fill="#1A1D23">Seg. Q</text><text x="916" y="670" text-anchor="middle" font-size="9" fill="#5A6070">Predictivo</text><text x="916" y="682" text-anchor="middle" font-size="9" fill="#8B92A0">12 may</text><rect x="216" y="698" width="130" height="28" rx="6" fill="#FFFFFF" stroke="#E2E5EA"/><text x="232" y="716" font-size="11" font-weight="500" fill="#003DA5">+ Agregar evento</text><rect x="216" y="738" width="828" height="32" rx="8" fill="#FEF3C7" stroke="#F59E0B" stroke-width="0.5"/><text x="232" y="758" font-size="11" fill="#92400E">PENDIENTE: Definir contenido del PPTX resumen de dashboard</text></svg>