<svg viewBox="0 0 1060 580" xmlns="http://www.w3.org/2000/svg" role="img" aria-labelledby="svgtitle">
<title id="svgtitle">PAE Detalle — Tab Formularios (vista general)</title>
<desc></desc>
<defs>
  <style>@import url('https://fonts.googleapis.com/css2?family=Inter:wght@300;400;500;600;700&amp;display=swap');text,tspan{font-family:'Inter',-apple-system,sans-serif;}</style>
  <filter id="shadow-sm" x="-4%" y="-4%" width="108%" height="116%"><feDropShadow dx="0" dy="1" stdDeviation="2" flood-opacity="0.06" flood-color="#000"/></filter>
  <filter id="shadow-md" x="-4%" y="-4%" width="108%" height="120%"><feDropShadow dx="0" dy="2" stdDeviation="4" flood-opacity="0.08" flood-color="#000"/></filter>
</defs>
<rect width="1060" height="580" fill="#F7F8FA"/>
<rect x="0" y="0" width="1060" height="48" fill="#FFFFFF" filter="url(#shadow-sm)"/>
<line x1="0" y1="48" x2="1060" y2="48" stroke="#E2E5EA"/>
<g transform="translate(16,16)">
  <rect x="0" y="-2" width="4" height="16" rx="1" fill="#C8102E"/>
  <text x="8" y="11" font-size="13" font-weight="700" fill="#1A1D23" letter-spacing="-0.3">PAE</text>
  <text x="42" y="11" font-size="10" font-weight="400" fill="#5A6070" letter-spacing="0.2">Gestión de Portfolio</text>
</g>
<text x="200" y="30" font-size="12" font-weight="400" fill="#8B92A0">Propuesta</text>
<text x="290" y="30" font-size="12" font-weight="400" fill="#8B92A0">Dimensionamiento</text>
<text x="410" y="30" font-size="12" font-weight="400" fill="#8B92A0">MVP</text>
<text x="465" y="30" font-size="12" font-weight="400" fill="#8B92A0">Delivery</text>
<circle cx="990" cy="24" r="14" fill="transparent" stroke="#E2E5EA"/>
<text x="990" y="28" text-anchor="middle" font-size="13" fill="#5A6070">🔔</text>
<circle cx="996" cy="16" r="7" fill="#C8102E"/>
<text x="996" y="19.5" text-anchor="middle" font-size="8" font-weight="600" fill="#FFFFFF">3</text>
<circle cx="1032" cy="24" r="14" fill="#003DA5" opacity="0.12"/>
<text x="1032" y="28" text-anchor="middle" font-size="10" font-weight="600" fill="#003DA5">JG</text>
<rect x="0" y="48" width="200" height="532" fill="#FFFFFF"/>
<line x1="200" y1="48" x2="200" y2="580" stroke="#E2E5EA"/>
<rect x="16" y="72" width="168" height="36" rx="8" fill="#003DA5"/>
<text x="100" y="94" text-anchor="middle" font-size="12" font-weight="500" fill="#FFFFFF">+ Nueva propuesta</text>
<text x="16" y="130" font-size="10" font-weight="600" fill="#8B92A0" letter-spacing="0.8">NAVEGACIÓN</text>
<text x="24" y="158" font-size="13" font-weight="400" fill="#5A6070">Dashboards</text>
<rect x="8" y="176" width="184" height="32" rx="6" fill="#003DA5" opacity="0.06"/>
<rect x="4" y="182" width="3" height="20" rx="1.5" fill="#003DA5"/>
<text x="24" y="194" font-size="13" font-weight="600" fill="#003DA5">Mis iniciativas</text>
<text x="24" y="230" font-size="13" font-weight="400" fill="#5A6070">Gateways</text>
<rect x="16" y="268" width="168" height="32" rx="6" fill="#C8102E" opacity="0.06"/>
<text x="28" y="288" font-size="12" font-weight="500" fill="#C8102E">Aprob. pendientes</text>
<circle cx="170" cy="284" r="9" fill="#C8102E"/>
<text x="170" y="288" text-anchor="middle" font-size="9" font-weight="600" fill="#FFFFFF">2</text>
<text x="224" y="72" font-size="11" fill="#5A6070">Mis iniciativas  ›  <tspan font-weight="500" fill="#1A1D23">Optimización de pozo</tspan></text>
<text x="224" y="98" font-size="20" font-weight="600" fill="#1A1D23">Optimización de pozo</text>
<rect x="456" y="82" width="70" height="22" rx="11" fill="#003DA5" opacity="0.08"/>
<text x="491" y="97" text-anchor="middle" font-size="10" font-weight="500" fill="#003DA5">Propuesta</text>
<rect x="532" y="82" width="82" height="22" rx="11" fill="#00843D" opacity="0.08"/>
<text x="573" y="97" text-anchor="middle" font-size="10" font-weight="500" fill="#00843D">En progreso</text>
<text x="224" y="118" font-size="11" fill="#5A6070">Dim: Producción  |  PO: J. García  |  BO: A. Torres  |  Sponsor: R. Méndez</text>
<rect x="884" y="82" width="70" height="30" rx="6" fill="#C8102E" opacity="0.06"/>
<text x="919" y="102" text-anchor="middle" font-size="11" font-weight="600" fill="#C8102E">PPTX</text>
<rect x="962" y="82" width="80" height="30" rx="6" fill="#F7F8FA" stroke="#E2E5EA"/>
<text x="1002" y="102" text-anchor="middle" font-size="10" fill="#5A6070">Nota prensa</text>

<rect x="216" y="130" width="828" height="40" fill="#FFFFFF"/>
<line x1="216" y1="169" x2="1044" y2="169" stroke="#E2E5EA"/>
<text x="232" y="156" font-size="12" font-weight="400" fill="#5A6070">Resumen</text>
<text x="308.5" y="156" font-size="12" font-weight="400" fill="#5A6070">Eventos</text>
<text x="385.0" y="156" font-size="12" font-weight="600" fill="#003DA5">Formularios</text>
<rect x="385.0" y="165" width="82.5" height="3" rx="1.5" fill="#003DA5"/>
<text x="491.5" y="156" font-size="12" font-weight="400" fill="#5A6070">Documentos</text>
<text x="590.5" y="156" font-size="12" font-weight="400" fill="#5A6070">Equipo</text>
<text x="659.5" y="156" font-size="12" font-weight="400" fill="#5A6070">Mesa de trabajo</text>
<rect x="216" y="182" width="828" height="360" rx="10" fill="#FFFFFF" filter="url(#shadow-sm)"/>
<text x="232" y="210" font-size="14" font-weight="600" fill="#1A1D23">Formularios — Optimización de pozo</text>
<text x="232" y="230" font-size="11" fill="#5A6070">F4 y F5 se completan múltiples veces (ciclo anual). Anteriores quedan read-only.</text>
<text x="232" y="258" font-size="9" font-weight="600" fill="#8B92A0" letter-spacing="0.5">FORM</text>
<text x="296" y="258" font-size="9" font-weight="600" fill="#8B92A0" letter-spacing="0.5">NOMBRE</text>
<text x="476" y="258" font-size="9" font-weight="600" fill="#8B92A0" letter-spacing="0.5">VERSIÓN</text>
<text x="616" y="258" font-size="9" font-weight="600" fill="#8B92A0" letter-spacing="0.5">ESTADO</text>
<text x="746" y="258" font-size="9" font-weight="600" fill="#8B92A0" letter-spacing="0.5">SECCIONES</text>
<text x="876" y="258" font-size="9" font-weight="600" fill="#8B92A0" letter-spacing="0.5">FECHA VF</text>
<line x1="232" y1="264" x2="1028" y2="264" stroke="#E2E5EA"/>
<rect x="232" y="272" width="44" height="22" rx="6" fill="#00843D" opacity="0.08"/>
<text x="254" y="288" text-anchor="middle" font-size="11" font-weight="600" fill="#00843D">F1</text>
<text x="296" y="288" font-size="12" font-weight="500" fill="#1A1D23">Propuesta</text>
<text x="476" y="288" font-size="11" fill="#5A6070">Versión final</text>
<rect x="616" y="274" width="76" height="22" rx="11" fill="#00843D" opacity="0.08"/>
<text x="654" y="289" text-anchor="middle" font-size="10" font-weight="500" fill="#00843D">Completado</text>
<text x="746" y="288" font-size="11" fill="#5A6070">8 secciones</text>
<text x="876" y="288" font-size="11" fill="#8B92A0">12 mar 2026</text>
<rect x="232" y="322" width="44" height="22" rx="6" fill="#00843D" opacity="0.08"/>
<text x="254" y="338" text-anchor="middle" font-size="11" font-weight="600" fill="#00843D">F2</text>
<text x="296" y="338" font-size="12" font-weight="500" fill="#1A1D23">Dimensionamiento</text>
<text x="476" y="338" font-size="11" fill="#5A6070">Versión final</text>
<rect x="616" y="324" width="76" height="22" rx="11" fill="#00843D" opacity="0.08"/>
<text x="654" y="339" text-anchor="middle" font-size="10" font-weight="500" fill="#00843D">Completado</text>
<text x="746" y="338" font-size="11" fill="#5A6070">12 secciones</text>
<text x="876" y="338" font-size="11" fill="#8B92A0">5 abr 2026</text>
<rect x="232" y="372" width="44" height="22" rx="6" fill="#003DA5" opacity="0.08"/>
<text x="254" y="388" text-anchor="middle" font-size="11" font-weight="600" fill="#003DA5">F3</text>
<text x="296" y="388" font-size="12" font-weight="500" fill="#1A1D23">MVP</text>
<text x="476" y="388" font-size="11" fill="#5A6070">En borrador</text>
<rect x="616" y="374" width="82" height="22" rx="11" fill="#003DA5" opacity="0.08"/>
<text x="657" y="389" text-anchor="middle" font-size="10" font-weight="500" fill="#003DA5">En progreso</text>
<text x="746" y="388" font-size="11" fill="#5A6070">10 secciones</text>
<text x="876" y="388" font-size="11" fill="#8B92A0">—</text>
<rect x="232" y="422" width="44" height="22" rx="6" fill="#8B92A0" opacity="0.08"/>
<text x="254" y="438" text-anchor="middle" font-size="11" font-weight="600" fill="#8B92A0">F4</text>
<text x="296" y="438" font-size="12" font-weight="500" fill="#1A1D23">Visión LTP</text>
<text x="476" y="438" font-size="11" fill="#5A6070">No iniciado</text>
<rect x="616" y="424" width="70" height="22" rx="11" fill="#8B92A0" opacity="0.08"/>
<text x="651" y="439" text-anchor="middle" font-size="10" font-weight="500" fill="#8B92A0">Bloqueado</text>
<text x="746" y="438" font-size="11" fill="#5A6070">6 secciones</text>
<text x="876" y="438" font-size="11" fill="#8B92A0">Requiere G3</text>
<rect x="232" y="472" width="44" height="22" rx="6" fill="#8B92A0" opacity="0.08"/>
<text x="254" y="488" text-anchor="middle" font-size="11" font-weight="600" fill="#8B92A0">F5</text>
<text x="296" y="488" font-size="12" font-weight="500" fill="#1A1D23">Review LTP</text>
<text x="476" y="488" font-size="11" fill="#5A6070">No iniciado</text>
<rect x="616" y="474" width="70" height="22" rx="11" fill="#8B92A0" opacity="0.08"/>
<text x="651" y="489" text-anchor="middle" font-size="10" font-weight="500" fill="#8B92A0">Bloqueado</text>
<text x="746" y="488" font-size="11" fill="#5A6070">5 secciones</text>
<text x="876" y="488" font-size="11" fill="#8B92A0">Requiere F4</text>
</svg>